<svg width="2399" height="188" viewBox="0 0 2399 188" fill="none" xmlns="http://www.w3.org/2000/svg">
<g opacity="0.25">
<rect x="296.759" width="1545.75" height="99" transform="rotate(1.22321 296.759 0)" fill="#C0E4E3"/>
<path d="M13.6372 63.9707L29.7615 64.315C37.3917 64.4779 41.3444 61.4896 41.4612 56.0189C41.5432 52.1798 39.2063 49.2012 34.3737 48.4259L34.3747 48.3779C38.7081 47.7982 40.8801 45.012 40.9569 41.4128C41.0748 35.8941 37.5391 32.8419 29.7179 32.6269L14.3134 32.298L13.6372 63.9707ZM22.003 45.4251L22.1505 38.5147L28.1491 38.6428C31.0765 38.7053 32.5396 39.8888 32.4904 42.1922C32.4422 44.4477 30.9289 45.6157 28.0016 45.5532L22.003 45.4251ZM21.7273 58.3342L21.8769 51.3278L28.6434 51.4722C31.6187 51.5358 33.0797 52.8152 33.0326 55.0227C32.9834 57.3262 31.4691 58.5422 28.4938 58.4786L21.7273 58.3342ZM69.3728 52.0538C69.5142 45.4313 65.2966 40.5882 57.7143 40.4263C50.276 40.2675 45.0438 44.7168 44.8748 52.635C44.7057 60.5532 49.5992 65.2187 57.5654 65.3888C62.6042 65.4964 67.2583 63.3873 68.7381 59.2899L62.2577 56.9911C61.501 58.7033 60.0878 59.6814 57.6884 59.6301C54.857 59.5697 53.1101 58.1881 52.7489 54.8676L69.1132 55.217C69.2255 54.4512 69.3471 53.2536 69.3728 52.0538ZM57.5924 46.137C60.0878 46.1903 61.3977 47.8026 61.6241 50.6881L52.8901 50.5016C53.4356 47.4406 55.049 46.0827 57.5924 46.137ZM83.7243 65.9474C91.2586 66.1082 95.0786 62.589 95.178 57.934C95.2497 54.5748 93.2864 52.0843 88.363 51.067L84.0145 50.1099C81.8642 49.6319 81.2046 49.0417 81.2231 48.1779C81.2466 47.0742 82.4127 46.4269 84.7642 46.4771C87.1636 46.5284 89.8264 47.7375 91.3211 49.6898L95.3025 45.3578C93.1513 42.6713 89.44 41.1037 84.5451 40.9992C76.8188 40.8342 73.1836 44.6935 73.1006 48.5806C73.0176 52.4677 75.2239 54.8194 81.2439 56.1962L84.5888 56.9398C86.5002 57.3647 86.9688 57.9028 86.9503 58.7666C86.9247 59.9663 85.4727 60.5114 83.5052 60.4694C80.2419 60.3998 77.4914 58.8047 75.9518 56.7073L72.0163 61.1363C74.6882 64.1701 78.9254 65.8449 83.7243 65.9474ZM116.081 59.7727C115.107 60.424 114.091 60.7864 112.555 60.7536C110.54 60.7106 109.408 59.7742 109.457 57.4708L109.663 47.825L116.813 47.9776L116.937 42.171L109.787 42.0183L109.95 34.388L101.743 36.4693L101.629 41.8441L97.5016 41.756L97.3776 47.5626L101.505 47.6508L101.27 58.6403C101.199 64.208 104.561 66.3923 110.032 66.5091C112.527 66.5624 115.23 65.8999 116.837 64.83L116.081 59.7727ZM148.613 35.1656L135.177 34.8786L134.5 66.5514L147.937 66.8383C157.871 67.0504 163.416 61.4555 163.632 51.3298C163.848 41.2042 158.547 35.3777 148.613 35.1656ZM147.255 60.5823L142.888 60.4891L143.297 41.2935L147.664 41.3867C153.039 41.5015 155.321 44.8149 155.186 51.1495C155.05 57.4841 152.629 60.6971 147.255 60.5823ZM172.927 40.5818C176.238 40.6525 177.703 39.4835 177.761 36.7961C177.819 34.0608 176.405 32.8303 173.094 32.7596C169.783 32.6889 168.317 33.8579 168.259 36.5933C168.201 39.2806 169.616 40.5111 172.927 40.5818ZM176.946 43.4523L168.788 43.2781L168.276 67.2726L176.434 67.4468L176.946 43.4523ZM197.328 62.5637L189.698 62.4008C187.874 62.3619 187.022 61.7676 187.045 60.7118C187.061 59.944 187.506 59.3773 188.664 59.066C190.002 59.3826 191.487 59.5583 193.166 59.5942C200.509 59.751 204.794 56.9138 204.905 51.731C204.965 48.8997 203.764 46.7135 201.442 45.2716C202.005 43.6513 203.708 42.5834 206.674 43.0788L206.118 37.6417C201.471 37.1584 199.051 40.3234 198.54 44.0094C197.061 43.5937 195.385 43.3659 193.514 43.3259C186.171 43.1691 181.837 46.0533 181.726 51.2361C181.663 54.2114 182.911 56.4466 185.426 57.8446C183.057 58.6102 181.579 60.355 181.531 62.6105C181.481 64.962 182.598 66.6182 184.979 67.5332C181.703 68.0394 180.325 69.6424 180.279 71.8019C180.199 75.545 183.749 77.9254 192.435 78.1108C200.497 78.283 205.693 75.5133 205.821 69.5146C205.915 65.1476 202.895 62.6826 197.328 62.5637ZM193.414 47.9809C195.478 48.0249 196.939 49.3044 196.891 51.5599C196.843 53.7674 195.329 54.9833 193.266 54.9393C191.154 54.8942 189.741 53.6157 189.788 51.4082C189.836 49.1527 191.303 47.9358 193.414 47.9809ZM192.596 72.833C188.708 72.75 186.423 71.8371 186.454 70.3974C186.475 69.4376 187.258 68.7342 188.506 68.7608L197.096 68.9442C198.919 68.9832 199.53 69.6203 199.51 70.5321C199.479 71.9718 197.202 72.9314 192.596 72.833ZM213.746 41.4534C217.057 41.5241 218.522 40.3551 218.579 37.6677C218.638 34.9323 217.224 33.7019 213.913 33.6312C210.601 33.5605 209.136 34.7295 209.078 37.4648C209.02 40.1522 210.434 41.3827 213.746 41.4534ZM217.765 44.3239L209.607 44.1497L209.095 68.1442L217.253 68.3184L217.765 44.3239ZM239.897 62.4164C238.923 63.0678 237.907 63.4302 236.371 63.3974C234.355 63.3543 233.223 62.418 233.272 60.1145L233.478 50.4687L240.629 50.6214L240.753 44.8147L233.602 44.662L233.765 37.0317L225.559 39.113L225.444 44.4878L221.317 44.3997L221.193 50.2064L225.32 50.2945L225.086 61.284C225.015 66.8517 228.377 69.036 233.848 69.1528C236.343 69.2061 239.046 68.5437 240.653 67.4737L239.897 62.4164ZM267.663 64.6897C266.559 64.6661 265.995 64.0779 266.023 62.7822L266.211 54.0002C266.338 48.0496 262.326 44.7952 255.32 44.6456C248.361 44.497 244.459 47.3904 243.497 51.9789L250.372 53.7581C251.005 51.083 252.608 50.205 254.72 50.2501C256.832 50.2952 258.145 51.7156 258.097 53.971L258.083 54.6429L249.744 56.1932C245.262 57.0097 243.197 59.2702 243.123 62.7254C243.031 67.0444 246.101 69.4145 251.044 69.52C254.259 69.5887 257.548 68.4586 258.943 66.0878C259.659 68.5037 261.938 69.7046 264.962 69.7692C266.401 69.7999 267.558 69.5846 268.479 69.1721L269.058 64.5274C268.671 64.6632 268.191 64.7009 267.663 64.6897ZM253.748 64.2965C252.308 64.2658 251.171 63.5694 251.202 62.1297C251.232 60.69 252.157 60.0856 254.086 59.6947L257.991 58.9619L257.962 60.3056C257.902 63.1369 255.907 64.3427 253.748 64.2965ZM280.966 35.495L272.808 35.3208L272.23 62.3866C272.116 67.7134 274.227 70.015 279.362 70.1247C281.138 70.1626 283.212 69.7268 284.379 69.0315L285.011 64.1479C284.141 64.4174 283.611 64.5021 282.651 64.4816C280.972 64.4457 280.365 63.6166 280.41 61.5051L280.966 35.495ZM338.865 39.2278L327.587 38.987L322.299 55.0538L320.333 61.6854L320.237 61.6833L318.605 54.9269L313.958 38.696L302.201 38.445L301.525 70.1178L308.867 70.2746L309.177 55.7339L309.146 45.987L309.242 45.989L316.545 70.4385L323.216 70.5809L331.556 46.4655L331.652 46.4675L331.204 56.2042L330.894 70.7449L338.188 70.9006L338.865 39.2278ZM367.812 66.8281C366.708 66.8045 366.144 66.2163 366.172 64.9206L366.36 56.1386C366.487 50.188 362.475 46.9336 355.469 46.784C348.51 46.6354 344.608 49.5288 343.646 54.1173L350.521 55.8965C351.154 53.2214 352.758 52.3434 354.869 52.3885C356.981 52.4336 358.295 53.854 358.246 56.1094L358.232 56.7813L349.893 58.3316C345.411 59.1481 343.346 61.4086 343.272 64.8638C343.18 69.1828 346.25 71.5529 351.193 71.6584C354.408 71.7271 357.697 70.597 359.092 68.2263C359.809 70.6421 362.087 71.843 365.111 71.9076C366.55 71.9383 367.707 71.723 368.628 71.3105L369.208 66.6658C368.821 66.8016 368.34 66.8394 367.812 66.8281ZM353.897 66.4349C352.457 66.4042 351.32 65.7078 351.351 64.2681C351.381 62.8284 352.306 62.224 354.235 61.8331L358.14 61.1003L358.111 62.444C358.051 65.2754 356.056 66.4811 353.897 66.4349ZM372.323 71.6295L380.481 71.8037L380.74 59.7104C380.819 55.9673 383.354 54.197 386.281 54.2595C387.673 54.2892 388.629 54.5017 389.295 54.7559L390.254 48.0549C389.733 47.7557 388.874 47.4973 387.674 47.4717C383.931 47.3918 381.535 49.4531 380.259 52.9786L380.034 47.7887L372.835 47.635L372.323 71.6295ZM410.795 72.4509L419.817 72.6436L410.771 57.8551L419.802 48.6378L410.732 48.4441L401.399 58.3271L401.831 38.0758L393.673 37.9016L392.943 72.0698L401.102 72.244L401.219 66.7252L405.151 62.4882L410.795 72.4509ZM444.99 60.0741C445.132 53.4516 440.914 48.6085 433.332 48.4466C425.894 48.2877 420.661 52.7371 420.492 60.6553C420.323 68.5735 425.217 73.239 433.183 73.4091C438.222 73.5167 442.876 71.4075 444.356 67.3102L437.875 65.0113C437.119 66.7236 435.705 67.7016 433.306 67.6504C430.475 67.5899 428.728 66.2083 428.366 62.8879L444.731 63.2373C444.843 62.4715 444.965 61.2738 444.99 60.0741ZM433.21 54.1573C435.705 54.2106 437.015 55.8229 437.242 58.7084L428.508 58.5219C429.053 55.4608 430.666 54.103 433.21 54.1573ZM465.83 67.2406C464.856 67.892 463.84 68.2543 462.304 68.2216C460.288 68.1785 459.156 67.2421 459.205 64.9387L459.411 55.2929L466.562 55.4455L466.686 49.6389L459.535 49.4862L459.698 41.8559L451.492 43.9372L451.377 49.312L447.25 49.2239L447.126 55.0305L451.253 55.1187L451.018 66.1082C450.948 71.6759 454.31 73.8602 459.78 73.977C462.276 74.0303 464.979 73.3678 466.586 72.2979L465.83 67.2406ZM474.592 47.0231C477.904 47.0938 479.369 45.9248 479.426 43.2374C479.485 40.502 478.071 39.2715 474.759 39.2008C471.448 39.1301 469.983 40.2991 469.924 43.0345C469.867 45.7219 471.281 46.9523 474.592 47.0231ZM478.612 49.8935L470.454 49.7193L469.942 73.7139L478.1 73.888L478.612 49.8935ZM500.17 49.8737C496.331 49.7917 493.365 51.5528 491.85 55.0253L491.714 50.1733L484.419 50.0175L483.907 74.012L492.065 74.1862L492.337 61.4691C492.422 57.486 494.422 55.9924 496.774 56.0426C498.789 56.0857 500.157 57.2191 500.087 60.5304L499.791 74.3512L507.95 74.5254L508.291 58.5451C508.41 52.9783 505.113 49.9793 500.17 49.8737ZM528.752 69.6404L521.122 69.4775C519.298 69.4385 518.447 68.8442 518.469 67.7884C518.486 67.0206 518.93 66.454 520.089 66.1426C521.427 66.4593 522.911 66.635 524.591 66.6709C531.933 66.8276 536.219 63.9905 536.329 58.8077C536.39 55.9763 535.188 53.7902 532.866 52.3483C533.429 50.7279 535.132 49.66 538.098 50.1555L537.542 44.7183C532.896 44.235 530.475 47.4001 529.965 51.086C528.485 50.6704 526.81 50.4425 524.938 50.4026C517.596 50.2458 513.261 53.1299 513.151 58.3127C513.087 61.2881 514.336 63.5232 516.85 64.9212C514.481 65.6868 513.004 67.4317 512.956 69.6872C512.905 72.0386 514.022 73.6949 516.403 74.6099C513.128 75.1161 511.749 76.719 511.703 78.8785C511.623 82.6217 515.173 85.002 523.859 85.1875C531.921 85.3596 537.118 82.5899 537.246 76.5913C537.339 72.2243 534.319 69.7592 528.752 69.6404ZM524.839 55.0575C526.902 55.1016 528.363 56.381 528.315 58.6365C528.268 60.844 526.754 62.06 524.69 62.0159C522.579 61.9708 521.166 60.6924 521.213 58.4849C521.261 56.2294 522.727 55.0124 524.839 55.0575ZM524.02 79.9097C520.133 79.8267 517.848 78.9137 517.879 77.474C517.899 76.5143 518.682 75.8108 519.93 75.8375L528.52 76.0209C530.344 76.0598 530.954 76.697 530.935 77.6088C530.904 79.0485 528.627 80.0081 524.02 79.9097ZM574.048 75.9368L582.542 76.1181L572.133 44.2086L562.247 43.9976L550.437 75.4326L558.739 75.6099L561.099 68.5066L572.041 68.7403L574.048 75.9368ZM562.995 62.9298L565.509 55.3498L566.911 50.4346L567.007 50.4366L568.292 55.4572L570.433 63.0887L562.995 62.9298ZM600.736 71.1774L593.106 71.0145C591.282 70.9755 590.431 70.3812 590.453 69.3255C590.469 68.5576 590.914 67.991 592.073 67.6797C593.41 67.9963 594.895 68.172 596.574 68.2079C603.917 68.3646 608.202 65.5275 608.313 60.3447C608.373 57.5133 607.172 55.3272 604.85 53.8853C605.413 52.2649 607.116 51.197 610.082 51.6925L609.526 46.2554C604.879 45.772 602.459 48.9371 601.948 52.623C600.469 52.2074 598.793 51.9795 596.922 51.9396C589.579 51.7828 585.245 54.6669 585.134 59.8498C585.071 62.8251 586.319 65.0602 588.834 66.4582C586.465 67.2238 584.987 68.9687 584.939 71.2242C584.889 73.5756 586.006 75.2319 588.387 76.1469C585.111 76.6531 583.733 78.256 583.687 80.4155C583.607 84.1587 587.157 86.539 595.843 86.7245C603.905 86.8966 609.101 84.1269 609.229 78.1283C609.323 73.7613 606.303 71.2962 600.736 71.1774ZM596.822 56.5945C598.886 56.6386 600.347 57.9181 600.299 60.1735C600.252 62.381 598.737 63.597 596.674 63.5529C594.562 63.5078 593.149 62.2294 593.196 60.0219C593.244 57.7664 594.711 56.5494 596.822 56.5945ZM596.004 81.4467C592.116 81.3637 589.831 80.4507 589.862 79.011C589.883 78.0513 590.666 77.3478 591.914 77.3745L600.504 77.5579C602.327 77.5968 602.938 78.234 602.918 79.1458C602.888 80.5855 600.611 81.5451 596.004 81.4467ZM636.009 64.1528C636.151 57.5303 631.933 52.6871 624.351 52.5253C616.912 52.3664 611.68 56.8157 611.511 64.7339C611.342 72.6521 616.236 77.3177 624.202 77.4878C629.241 77.5954 633.895 75.4862 635.375 71.3889L628.894 69.09C628.137 70.8023 626.724 71.7803 624.325 71.7291C621.493 71.6686 619.747 70.287 619.385 66.9665L635.75 67.316C635.862 66.5502 635.984 65.3525 636.009 64.1528ZM624.229 58.236C626.724 58.2892 628.034 59.9016 628.261 62.7871L619.527 62.6006C620.072 59.5395 621.685 58.1816 624.229 58.236ZM656.556 53.2129C652.717 53.1309 649.751 54.892 648.236 58.3645L648.1 53.5125L640.806 53.3567L640.293 77.3512L648.451 77.5254L648.723 64.8083C648.808 60.8252 650.808 59.3316 653.16 59.3818C655.175 59.4248 656.544 60.5583 656.473 63.8696L656.178 77.6904L664.336 77.8646L664.677 61.8842C664.796 56.3175 661.499 53.3185 656.556 53.2129ZM681.948 53.7551C674.462 53.5952 669.229 58.0925 669.061 65.9628C668.893 73.833 673.833 78.5475 681.751 78.7166C688.182 78.8539 692.376 75.7747 693.185 71.615L685.893 69.1068C685.456 71.594 684.179 72.9591 681.827 72.9089C678.948 72.8474 677.163 70.9849 677.265 66.2339C677.365 61.531 678.993 59.5013 682.064 59.5669C684.224 59.613 685.491 60.9844 685.767 63.7749L693.355 61.4403C692.67 57.5368 689.242 53.9108 681.948 53.7551ZM721.509 55.0799L713.399 54.9067L709.416 68.3128L707.96 73.5629L706.917 68.4514L703.513 54.6957L694.54 54.504L701.354 72.6536L703.998 79.2396L703.342 80.7139C702.631 82.5232 701.469 82.9785 699.598 82.9385C697.63 82.8965 696.438 82.535 695.351 81.6956L693.602 87.1795C695.212 88.2221 697.454 88.8941 700.189 88.9525C706.236 89.0816 709.461 86.4619 712.263 78.888L721.509 55.0799Z" fill="black"/>
<path d="M864.76 71.0483C864.105 73.2428 863.09 75.0456 861.716 76.4566C860.342 77.8355 858.72 78.8412 856.85 79.4734C854.981 80.0736 852.927 80.3498 850.687 80.302C847.488 80.2337 844.734 79.5348 842.426 78.2052C840.118 76.8436 838.367 74.9338 837.171 72.4757C835.975 70.0176 835.414 67.0769 835.487 63.6537C835.56 60.2305 836.246 57.3165 837.546 54.9117C838.846 52.5069 840.677 50.6896 843.04 49.4597C845.403 48.1979 848.169 47.6008 851.336 47.6684C853.543 47.7156 855.568 48.0789 857.41 48.7583C859.253 49.4058 860.8 50.3831 862.052 51.6901C863.305 52.9971 864.181 54.6642 864.682 56.6914L857.373 59.464C856.968 57.4709 856.261 56.0955 855.253 55.3378C854.277 54.5808 853.021 54.1859 851.485 54.1531C849.982 54.121 848.662 54.4609 847.527 55.1728C846.423 55.8854 845.552 56.9711 844.913 58.4298C844.306 59.8571 843.979 61.6586 843.933 63.8341C843.887 65.9776 844.121 67.791 844.633 69.2743C845.146 70.7575 845.938 71.8787 847.01 72.6378C848.114 73.3975 849.482 73.7948 851.113 73.8296C852.649 73.8624 853.954 73.4742 855.027 72.6649C856.133 71.8243 856.897 70.5283 857.319 68.7769L864.76 71.0483ZM868.581 80.204L869.093 56.2094L876.292 56.3631L876.517 61.5531C877.163 59.7745 878.089 58.402 879.294 57.4355C880.53 56.4697 882.077 56.0066 883.932 56.0462C884.54 56.0592 885.051 56.1181 885.465 56.2229C885.911 56.3285 886.26 56.464 886.512 56.6294L885.553 63.3304C885.236 63.1956 884.822 63.0908 884.312 63.0159C883.834 62.9096 883.243 62.849 882.539 62.834C881.579 62.8135 880.679 63.0023 879.838 63.4005C878.998 63.7986 878.312 64.4081 877.783 65.229C877.286 66.0186 877.024 67.0372 876.997 68.2849L876.739 80.3782L868.581 80.204ZM900.864 56.4077C903.392 56.4617 905.588 57.0047 907.455 58.0368C909.354 59.0375 910.811 60.493 911.827 62.4031C912.875 64.2819 913.371 66.533 913.315 69.1564C913.259 71.7798 912.667 74.0237 911.539 75.888C910.443 77.7211 908.925 79.113 906.985 80.0638C905.077 80.9832 902.859 81.416 900.331 81.362C897.868 81.3094 895.687 80.7827 893.788 79.782C891.889 78.7492 890.416 77.2934 889.368 75.4146C888.352 73.5045 887.873 71.2378 887.929 68.6144C887.985 65.9909 888.56 63.7627 889.656 61.9297C890.784 60.0654 892.318 58.6738 894.258 57.755C896.199 56.8042 898.401 56.3551 900.864 56.4077ZM900.74 62.2144C899.812 62.1946 899.008 62.4014 898.326 62.835C897.645 63.2686 897.118 63.9775 896.745 64.9617C896.372 65.946 896.168 67.2219 896.135 68.7896C896.101 70.3572 896.25 71.6407 896.581 72.64C896.912 73.6073 897.409 74.338 898.07 74.8323C898.732 75.2945 899.528 75.5355 900.455 75.5553C901.415 75.5758 902.236 75.3693 902.917 74.9358C903.599 74.4702 904.126 73.7613 904.499 72.809C904.872 71.8248 905.075 70.5488 905.109 68.9812C905.142 67.4135 904.994 66.1301 904.663 65.1308C904.332 64.1315 903.836 63.4007 903.173 62.9385C902.511 62.4762 901.7 62.2349 900.74 62.2144ZM948.984 57.9153L957.526 58.0977L949.767 81.9375L939.978 81.7284L935.925 66.9026L931.388 81.545L921.646 81.337L914.864 57.1867L923.454 57.3702L927.107 75.1642L932.188 57.5566L940.25 57.7288L944.527 75.5362L948.984 57.9153ZM968.458 82.8167C966.475 82.7743 964.741 82.2572 963.258 81.2653C961.808 80.2421 960.686 78.7939 959.894 76.9205C959.134 75.0479 958.781 72.8158 958.837 70.2244C958.894 67.537 959.359 65.2744 960.23 63.4366C961.133 61.5995 962.348 60.2011 963.872 59.2414C965.429 58.2824 967.199 57.8241 969.183 57.8665C971.358 57.9129 973.088 58.622 974.371 59.9937C975.686 61.3341 976.514 63.0322 976.855 65.0879L976.065 66.0793L976.444 48.3233L984.602 48.4975L983.873 82.6657L976.579 82.51L976.225 74.3405L977.169 75.0809C976.943 76.6764 976.418 78.0575 975.592 79.2242C974.799 80.3915 973.788 81.2981 972.558 81.944C971.36 82.5586 969.994 82.8495 968.458 82.8167ZM971.418 76.8785C972.345 76.8983 973.134 76.6751 973.784 76.2089C974.467 75.7113 974.995 74.9704 975.368 73.9862C975.741 73.0019 975.943 71.79 975.974 70.3503C976.003 69.0066 975.851 67.8671 975.519 66.9318C975.219 65.9652 974.739 65.2348 974.077 64.7405C973.448 64.215 972.67 63.9423 971.742 63.9225C970.335 63.8924 969.204 64.3964 968.349 65.4344C967.528 66.4411 967.093 68.0642 967.045 70.3037C966.997 72.5432 967.362 74.1993 968.139 75.2722C968.917 76.313 970.01 76.8484 971.418 76.8785ZM995.964 82.9239L996.353 64.688C996.371 63.8562 996.389 63.0084 996.408 62.1446C996.459 61.2495 996.494 60.3381 996.514 59.4103C995.438 60.3475 994.252 61.1704 992.956 61.8789C991.662 62.5554 990.308 63.0066 988.895 63.2325L988.272 56.4016C989.106 56.3554 989.99 56.1663 990.925 55.8341C991.892 55.5027 992.845 55.091 993.784 54.5989C994.723 54.1068 995.566 53.5807 996.314 53.0205C997.063 52.4284 997.636 51.8485 998.032 51.2808L1004.61 51.4212L1003.93 83.094L995.964 82.9239ZM1022.91 83.9793C1018.59 83.8871 1015.34 82.4414 1013.16 79.6422C1011.01 76.8437 1009.99 72.757 1010.11 67.3823C1010.22 62.0075 1011.41 57.968 1013.68 55.2637C1015.98 52.5602 1019.29 51.2545 1023.6 51.3467C1027.92 51.439 1031.16 52.8843 1033.31 55.6828C1035.49 58.482 1036.52 62.569 1036.4 67.9438C1036.29 73.3185 1035.08 77.3577 1032.79 80.0613C1030.52 82.7655 1027.23 84.0715 1022.91 83.9793ZM1023.04 77.5488C1024.23 77.574 1025.2 77.2746 1025.94 76.6505C1026.69 75.9943 1027.25 74.9498 1027.6 73.517C1027.98 72.0528 1028.2 70.137 1028.25 67.7696C1028.3 65.4021 1028.16 63.4948 1027.84 62.0476C1027.55 60.5691 1027.05 59.5021 1026.32 58.8465C1025.6 58.159 1024.65 57.8025 1023.47 57.7773C1022.32 57.7527 1021.35 58.0681 1020.57 58.7236C1019.82 59.3477 1019.25 60.3918 1018.87 61.856C1018.52 63.2888 1018.32 65.189 1018.26 67.5564C1018.21 69.9239 1018.33 71.8469 1018.62 73.3254C1018.94 74.7726 1019.46 75.8399 1020.19 76.5275C1020.94 77.1837 1021.89 77.5242 1023.04 77.5488ZM1092.92 53.307L1092.25 84.9797L1084.95 84.824L1085.26 70.2833L1085.71 60.5466L1085.61 60.5446L1077.27 84.66L1070.6 84.5176L1063.3 60.0681L1063.2 60.0661L1063.24 69.813L1062.93 84.3537L1055.58 84.1969L1056.26 52.5241L1068.02 52.7751L1072.66 69.006L1074.3 75.7624L1074.39 75.7645L1076.36 69.1329L1081.65 53.0662L1092.92 53.307ZM1112.3 70.1886C1112.33 69.0688 1112.03 68.1822 1111.4 67.5287C1110.81 66.8438 1109.98 66.4902 1108.93 66.4676C1107.87 66.4451 1106.95 66.6975 1106.17 67.225C1105.43 67.7212 1104.9 68.638 1104.58 69.9756L1097.7 68.1964C1098.2 65.9025 1099.42 64.0882 1101.37 62.7535C1103.32 61.4188 1106.04 60.7887 1109.53 60.8631C1111.86 60.913 1113.84 61.3073 1115.46 62.046C1117.1 62.7533 1118.35 63.8041 1119.18 65.1982C1120.05 66.561 1120.46 68.2342 1120.42 70.2178L1120.23 78.9998C1120.2 80.2475 1120.75 80.8833 1121.87 80.9072C1122.45 80.9195 1122.91 80.8654 1123.27 80.745L1122.69 85.3896C1121.72 85.817 1120.54 86.0161 1119.17 85.9867C1117.92 85.96 1116.82 85.7445 1115.87 85.3401C1114.92 84.9037 1114.18 84.2798 1113.65 83.4684C1113.13 82.6249 1112.88 81.5794 1112.9 80.3317L1112.91 80.0437L1113.83 79.7273C1113.8 81.103 1113.36 82.2458 1112.51 83.1558C1111.69 84.0666 1110.62 84.7319 1109.3 85.1517C1108.01 85.5723 1106.66 85.7676 1105.25 85.7375C1103.62 85.7027 1102.2 85.4163 1101 84.8785C1099.79 84.3407 1098.86 83.5847 1098.21 82.6105C1097.59 81.6051 1097.3 80.3826 1097.33 78.9429C1097.37 77.2153 1097.91 75.8025 1098.96 74.7046C1100.04 73.5755 1101.7 72.8108 1103.95 72.4107L1113.06 70.7328L1112.92 75.0508L1108.29 75.9122C1107.33 76.0837 1106.6 76.3563 1106.12 76.7299C1105.66 77.0723 1105.42 77.6114 1105.41 78.3472C1105.39 79.051 1105.64 79.5844 1106.14 79.9472C1106.65 80.3101 1107.25 80.499 1107.96 80.5141C1108.5 80.5257 1109.01 80.4566 1109.5 80.3069C1110.01 80.1579 1110.46 79.9275 1110.86 79.6158C1111.25 79.272 1111.56 78.8466 1111.79 78.3395C1112.03 77.8324 1112.15 77.2269 1112.17 76.5231L1112.3 70.1886ZM1126.38 85.7086L1126.89 61.7141L1134.09 61.8678L1134.32 67.0578C1134.96 65.2791 1135.89 63.9066 1137.09 62.9401C1138.33 61.9743 1139.88 61.5112 1141.73 61.5508C1142.34 61.5638 1142.85 61.6227 1143.27 61.7275C1143.71 61.8331 1144.06 61.9686 1144.31 62.134L1143.35 68.8351C1143.04 68.7003 1142.62 68.5954 1142.11 68.5205C1141.63 68.4143 1141.04 68.3536 1140.34 68.3386C1139.38 68.3181 1138.48 68.5069 1137.64 68.9051C1136.8 69.3032 1136.11 69.9127 1135.58 70.7336C1135.09 71.5232 1134.82 72.5418 1134.8 73.7895L1134.54 85.8828L1126.38 85.7086ZM1173.86 62.7169L1162.08 74.7562L1160.54 75.1553L1153.51 82.687L1153.64 74.3359L1164.79 62.5232L1173.86 62.7169ZM1155.89 52.1549L1155.16 86.3231L1147 86.1489L1147.73 51.9807L1155.89 52.1549ZM1163.44 69.696L1173.88 86.7227L1164.85 86.5301L1158.01 74.3811L1163.44 69.696ZM1187.29 87.4892C1184.63 87.4325 1182.34 86.8874 1180.41 85.854C1178.51 84.8212 1177.05 83.3658 1176.04 81.4877C1175.02 79.6095 1174.54 77.3588 1174.6 74.7354C1174.65 72.112 1175.23 69.8838 1176.32 68.0507C1177.42 66.2177 1178.92 64.8254 1180.83 63.874C1182.77 62.9232 1184.97 62.4741 1187.44 62.5267C1189.96 62.5806 1192.1 63.1223 1193.84 64.1516C1195.61 65.1497 1196.94 66.5224 1197.83 68.2698C1198.72 69.9853 1199.14 71.9467 1199.1 74.1542C1199.08 74.7301 1199.06 75.3056 1199.01 75.8808C1198.97 76.456 1198.91 76.9348 1198.84 77.3174L1179.83 76.9116L1179.93 72.5446L1195.33 72.8735L1191.41 74.2782C1191.45 72.3586 1191.13 70.8795 1190.45 69.8407C1189.8 68.8025 1188.75 68.2681 1187.32 68.2374C1186.29 68.2155 1185.41 68.4367 1184.66 68.9009C1183.95 69.3657 1183.39 70.1059 1182.98 71.1215C1182.61 72.1378 1182.4 73.4457 1182.37 75.0453C1182.34 76.613 1182.52 77.8971 1182.91 78.8978C1183.31 79.8664 1183.88 80.5829 1184.64 81.0472C1185.4 81.4795 1186.32 81.7073 1187.41 81.7305C1188.63 81.7565 1189.59 81.537 1190.31 81.0722C1191.05 80.608 1191.61 79.9477 1191.98 79.0914L1198.46 81.3903C1197.98 82.7564 1197.18 83.9074 1196.03 84.8433C1194.93 85.7479 1193.6 86.4237 1192.05 86.8708C1190.54 87.3186 1188.95 87.5247 1187.29 87.4892ZM1213.8 55.936L1213.31 79.0188C1213.29 80.1705 1213.54 81.0081 1214.07 81.5316C1214.64 82.0238 1215.42 82.2805 1216.41 82.3017C1217.18 82.3181 1217.83 82.2521 1218.38 82.1037C1218.96 81.9241 1219.48 81.6631 1219.94 81.3207L1220.69 86.378C1219.88 86.9368 1218.86 87.3632 1217.64 87.6571C1216.42 87.9511 1215.17 88.0844 1213.89 88.0571C1212.06 88.0182 1210.48 87.7284 1209.15 87.1878C1207.85 86.648 1206.84 85.8103 1206.13 84.6748C1205.45 83.54 1205.12 82.0445 1205.12 80.1883L1205.6 58.0173L1213.8 55.936ZM1220.79 63.719L1220.67 69.5256L1201.23 69.1107L1201.36 63.304L1220.79 63.719ZM1228.7 61.1032C1227.03 61.0676 1225.82 60.7378 1225.07 60.1135C1224.35 59.4579 1224 58.4583 1224.03 57.1146C1224.06 55.7389 1224.45 54.755 1225.2 54.1629C1225.98 53.5394 1227.2 53.2454 1228.86 53.2809C1230.5 53.3158 1231.69 53.6613 1232.44 54.3176C1233.2 54.9418 1233.56 55.9418 1233.53 57.3175C1233.5 58.6612 1233.1 59.6448 1232.32 60.2682C1231.54 60.8597 1230.33 61.138 1228.7 61.1032ZM1232.72 63.9736L1232.21 87.9682L1224.05 87.794L1224.56 63.7994L1232.72 63.9736ZM1238.01 88.0922L1238.52 64.0976L1245.82 64.2534L1246.07 72.5167L1245.18 71.5855C1245.54 69.8647 1246.13 68.437 1246.95 67.3023C1247.81 66.1683 1248.85 65.3264 1250.08 64.7765C1251.34 64.1953 1252.74 63.921 1254.28 63.9538C1255.94 63.9893 1257.37 64.34 1258.57 65.0058C1259.81 65.6723 1260.76 66.6369 1261.44 67.8997C1262.12 69.1624 1262.44 70.7376 1262.4 72.6252L1262.06 88.6055L1253.9 88.4313L1254.19 74.6105C1254.23 72.9469 1253.93 71.7883 1253.31 71.1348C1252.68 70.4813 1251.87 70.1439 1250.88 70.1227C1250.11 70.1063 1249.39 70.2829 1248.71 70.6525C1248.03 70.9901 1247.49 71.5547 1247.09 72.3463C1246.69 73.1379 1246.47 74.2056 1246.44 75.5493L1246.17 88.2664L1238.01 88.0922ZM1291.65 58.7985L1292.2 64.2835C1292.01 64.2155 1291.82 64.1794 1291.63 64.1753C1291.44 64.1392 1291.25 64.1191 1291.05 64.115C1289.65 64.0849 1288.58 64.4143 1287.86 65.1031C1287.18 65.7606 1286.82 66.6013 1286.8 67.625L1283.95 66.5078C1283.97 65.1961 1284.24 63.9375 1284.75 62.732C1285.25 61.5265 1286.01 60.5505 1287.02 59.8038C1288.06 59.0579 1289.35 58.7013 1290.88 58.7341C1290.98 58.7361 1291.09 58.7385 1291.22 58.7412C1291.38 58.7447 1291.52 58.7637 1291.65 58.7985ZM1282.86 83.7205C1285.64 83.7799 1287.76 84.4172 1289.2 85.6324C1290.68 86.8162 1291.4 88.4959 1291.35 90.6714C1291.31 92.6549 1290.73 94.2909 1289.61 95.5794C1288.5 96.8679 1286.94 97.8109 1284.94 98.4084C1282.98 99.0386 1280.65 99.325 1277.96 99.2676C1273.61 99.1747 1270.49 98.5639 1268.59 97.4351C1266.7 96.3064 1265.77 94.8142 1265.81 92.9586C1265.84 91.6149 1266.4 90.5388 1267.51 89.7302C1268.62 88.9216 1270.43 88.5123 1272.96 88.5023L1272.75 89.266C1270.81 88.9684 1269.36 88.3615 1268.42 87.4452C1267.48 86.5289 1267.03 85.3029 1267.06 83.7673C1267.09 82.2316 1267.73 80.9969 1268.96 80.0631C1270.2 79.1293 1271.83 78.6359 1273.85 78.5829L1276.79 80.0381L1276.02 80.0217C1274.77 80.0591 1273.89 80.2483 1273.37 80.5892C1272.85 80.9302 1272.59 81.3567 1272.57 81.8686C1272.56 82.4124 1272.78 82.8331 1273.22 83.1306C1273.66 83.3961 1274.33 83.5384 1275.23 83.5576L1282.86 83.7205ZM1278.13 93.9898C1279.66 94.0226 1280.93 93.9376 1281.92 93.7348C1282.95 93.5647 1283.73 93.2932 1284.25 92.9202C1284.76 92.5792 1285.03 92.1688 1285.04 91.6889C1285.05 91.209 1284.88 90.8213 1284.54 90.5259C1284.19 90.2624 1283.55 90.1208 1282.63 90.101L1274.04 89.9176C1273.43 89.9046 1272.93 90.054 1272.54 90.3657C1272.18 90.6781 1271.99 91.0743 1271.98 91.5541C1271.97 92.29 1272.5 92.8615 1273.58 93.2686C1274.66 93.7077 1276.17 93.9481 1278.13 93.9898ZM1279.04 64.4827C1281.47 64.5346 1283.55 64.8989 1285.26 65.5757C1286.98 66.2524 1288.27 67.2082 1289.14 68.4431C1290.04 69.6466 1290.47 71.1282 1290.43 72.8878C1290.4 74.6154 1289.9 76.0771 1288.95 77.273C1288.03 78.4696 1286.7 79.3694 1284.95 79.9724C1283.21 80.5434 1281.13 80.8029 1278.7 80.751C1274.89 80.6697 1272.01 79.904 1270.06 78.454C1268.13 77.0046 1267.2 74.9843 1267.26 72.3929C1267.29 70.6333 1267.77 69.1712 1268.69 68.0065C1269.65 66.8106 1271 65.9112 1272.74 65.3082C1274.48 64.7053 1276.58 64.4301 1279.04 64.4827ZM1278.94 69.1376C1277.89 69.1151 1277.02 69.4006 1276.33 69.9941C1275.68 70.5883 1275.34 71.4453 1275.32 72.565C1275.29 73.6527 1275.6 74.5074 1276.22 75.1289C1276.88 75.7511 1277.74 76.0735 1278.8 76.096C1279.82 76.1179 1280.67 75.8321 1281.36 75.2385C1282.04 74.645 1282.4 73.8044 1282.42 72.7166C1282.44 71.5969 1282.13 70.7259 1281.47 70.1037C1280.81 69.4815 1279.97 69.1595 1278.94 69.1376Z" fill="black"/>
</g>
<path d="M1681.3 97.4504L1681.98 65.7777L1697.38 66.1066C1701.28 66.2219 1704.15 67.0352 1705.97 68.5465C1707.8 70.0258 1708.68 72.1411 1708.62 74.8925C1708.58 76.6841 1708.02 78.2245 1706.94 79.5136C1705.85 80.7708 1704.22 81.5521 1702.04 81.8576L1702.04 81.9056C1704.46 82.2774 1706.25 83.1638 1707.41 84.5648C1708.59 85.9344 1709.17 87.579 1709.13 89.4986C1709.07 92.218 1708.06 94.309 1706.11 95.7717C1704.16 97.2024 1701.26 97.8767 1697.43 97.7947L1681.3 97.4504ZM1689.39 91.8139L1696.16 91.9583C1697.66 91.9904 1698.79 91.7104 1699.54 91.1183C1700.29 90.5261 1700.67 89.6542 1700.7 88.5024C1700.72 87.3827 1700.37 86.527 1699.65 85.9355C1698.92 85.3119 1697.81 84.984 1696.31 84.9519L1689.54 84.8075L1689.39 91.8139ZM1689.67 78.9048L1695.67 79.0329C1698.61 79.0957 1700.11 77.9754 1700.15 75.6719C1700.2 73.3685 1698.76 72.1853 1695.81 72.1225L1689.81 71.9944L1689.67 78.9048ZM1725.23 98.8685C1722.57 98.8118 1720.28 98.2667 1718.35 97.2333C1716.45 96.2005 1714.99 94.7451 1713.98 92.867C1712.96 90.9889 1712.48 88.7381 1712.54 86.1147C1712.59 83.4913 1713.17 81.2631 1714.27 79.43C1715.36 77.597 1716.86 76.2048 1718.77 75.2533C1720.71 74.3025 1722.91 73.8534 1725.38 73.906C1727.91 73.96 1730.04 74.5016 1731.78 75.531C1733.55 76.529 1734.88 77.9017 1735.77 79.6492C1736.66 81.3646 1737.08 83.326 1737.04 85.5335C1737.02 86.1094 1737 86.6849 1736.95 87.2601C1736.91 87.8353 1736.85 88.3142 1736.78 88.6967L1717.77 88.2909L1717.87 83.9239L1733.27 84.2529L1729.35 85.6575C1729.39 83.738 1729.07 82.2588 1728.39 81.22C1727.74 80.1819 1726.7 79.6474 1725.26 79.6167C1724.23 79.5948 1723.35 79.816 1722.6 80.2802C1721.89 80.745 1721.33 81.4853 1720.92 82.5008C1720.55 83.5171 1720.34 84.825 1720.31 86.4247C1720.28 87.9923 1720.46 89.2765 1720.85 90.2771C1721.25 91.2458 1721.82 91.9622 1722.58 92.4265C1723.34 92.8588 1724.26 93.0866 1725.35 93.1098C1726.57 93.1358 1727.53 92.9163 1728.25 92.4515C1728.99 91.9873 1729.55 91.3271 1729.92 90.4708L1736.4 92.7696C1735.92 94.1358 1735.12 95.2868 1733.98 96.2226C1732.87 97.1272 1731.54 97.803 1730 98.2501C1728.48 98.6979 1726.89 98.904 1725.23 98.8685ZM1751.39 99.4271C1748.99 99.3758 1746.76 98.9441 1744.69 98.1319C1742.66 97.2883 1740.99 96.1164 1739.68 94.616L1743.62 90.187C1744.39 91.2279 1745.43 92.1142 1746.73 92.8461C1748.06 93.5466 1749.54 93.9143 1751.17 93.9491C1752.16 93.9703 1752.98 93.8438 1753.63 93.5695C1754.27 93.2952 1754.6 92.8542 1754.61 92.2463C1754.62 91.7984 1754.47 91.4431 1754.16 91.1803C1753.84 90.8855 1753.21 90.6319 1752.25 90.4195L1748.91 89.6759C1745.91 89.0038 1743.79 88.0623 1742.53 86.8512C1741.31 85.6088 1740.72 84.0119 1740.76 82.0603C1740.79 80.7486 1741.22 79.5094 1742.04 78.3428C1742.87 77.1441 1744.12 76.1947 1745.8 75.4944C1747.48 74.7621 1749.62 74.4236 1752.21 74.4789C1754.64 74.5308 1756.78 74.9285 1758.62 75.672C1760.46 76.4154 1761.91 77.4706 1762.97 78.8375L1758.99 83.1695C1758.24 82.1934 1757.26 81.4204 1756.06 80.8505C1754.85 80.2807 1753.64 79.9828 1752.43 79.9568C1751.66 79.9404 1751 80.0064 1750.46 80.1548C1749.94 80.2718 1749.55 80.4556 1749.29 80.706C1749.03 80.9565 1748.9 81.2737 1748.89 81.6576C1748.88 82.0735 1749.06 82.4455 1749.44 82.7737C1749.85 83.0705 1750.6 83.3425 1751.68 83.5896L1756.03 84.5467C1758.48 85.0472 1760.24 85.9009 1761.3 87.1079C1762.36 88.3148 1762.88 89.7501 1762.84 91.4137C1762.81 92.9814 1762.36 94.3802 1761.5 95.6101C1760.65 96.8401 1759.38 97.8052 1757.7 98.5055C1756.02 99.1739 1753.92 99.481 1751.39 99.4271ZM1777.61 67.8677L1777.12 90.9505C1777.1 92.1022 1777.35 92.9398 1777.88 93.4633C1778.45 93.9555 1779.23 94.2122 1780.22 94.2334C1780.99 94.2497 1781.64 94.1838 1782.19 94.0354C1782.77 93.8558 1783.29 93.5948 1783.75 93.2524L1784.5 98.3097C1783.69 98.8685 1782.67 99.2949 1781.45 99.5888C1780.23 99.8828 1778.98 100.016 1777.7 99.9888C1775.87 99.9499 1774.29 99.6601 1772.96 99.1195C1771.66 98.5796 1770.65 97.742 1769.94 96.6065C1769.26 95.4717 1768.93 93.9762 1768.93 92.12L1769.41 69.949L1777.61 67.8677ZM1784.6 75.6507L1784.48 81.4573L1765.04 81.0423L1765.17 75.2357L1784.6 75.6507ZM1816.28 68.6453C1821.24 68.7511 1825 70.2078 1827.56 73.0152C1830.16 75.8232 1831.4 79.7547 1831.3 84.8095C1831.19 89.8644 1829.78 93.7392 1827.06 96.4338C1824.38 99.1292 1820.56 100.424 1815.6 100.318L1802.16 100.031L1802.84 68.3584L1816.28 68.6453ZM1814.92 94.062C1817.61 94.1194 1819.57 93.3613 1820.82 91.7876C1822.11 90.1826 1822.78 87.7965 1822.85 84.6292C1822.92 81.4619 1822.34 79.0652 1821.13 77.4389C1819.95 75.7813 1818.02 74.9238 1815.33 74.8664L1810.96 74.7732L1810.55 93.9688L1814.92 94.062ZM1840.59 74.0615C1838.93 74.026 1837.72 73.6961 1836.96 73.0719C1836.24 72.4163 1835.89 71.4167 1835.92 70.073C1835.95 68.6973 1836.34 67.7134 1837.09 67.1212C1837.87 66.4978 1839.09 66.2038 1840.76 66.2393C1842.39 66.2741 1843.58 66.6197 1844.34 67.2759C1845.09 67.9002 1845.45 68.9002 1845.42 70.2758C1845.4 71.6195 1844.99 72.6031 1844.21 73.2266C1843.43 73.818 1842.22 74.0964 1840.59 74.0615ZM1844.61 76.932L1844.1 100.927L1835.94 100.752L1836.45 76.7578L1844.61 76.932ZM1873.78 71.1214L1874.34 76.6065C1874.15 76.5384 1873.95 76.5023 1873.76 76.4982C1873.57 76.4621 1873.38 76.442 1873.19 76.4379C1871.78 76.4079 1870.72 76.7373 1870 77.4261C1869.31 78.0836 1868.96 78.9242 1868.94 79.948L1866.08 78.8307C1866.11 77.519 1866.37 76.2604 1866.88 75.055C1867.39 73.8495 1868.14 72.8734 1869.15 72.1268C1870.19 71.3808 1871.48 71.0242 1873.01 71.057C1873.11 71.0591 1873.22 71.0614 1873.35 71.0642C1873.51 71.0676 1873.65 71.0867 1873.78 71.1214ZM1864.99 96.0434C1867.78 96.1029 1869.89 96.7402 1871.34 97.9553C1872.82 99.1392 1873.53 100.819 1873.49 102.994C1873.44 104.978 1872.86 106.614 1871.75 107.902C1870.63 109.191 1869.08 110.134 1867.08 110.731C1865.11 111.362 1862.79 111.648 1860.1 111.591C1855.75 111.498 1852.62 110.887 1850.73 109.758C1848.83 108.629 1847.9 107.137 1847.94 105.282C1847.97 103.938 1848.54 102.862 1849.64 102.053C1850.75 101.245 1852.57 100.835 1855.1 100.825L1854.89 101.589C1852.94 101.291 1851.5 100.684 1850.56 99.7681C1849.62 98.8518 1849.16 97.6259 1849.2 96.0902C1849.23 94.5546 1849.86 93.3198 1851.1 92.386C1852.33 91.4522 1853.96 90.9588 1855.98 90.9059L1858.92 92.3611L1858.16 92.3447C1856.91 92.382 1856.02 92.5712 1855.5 92.9122C1854.98 93.2532 1854.72 93.6796 1854.71 94.1915C1854.7 94.7354 1854.91 95.1561 1855.35 95.4536C1855.8 95.7191 1856.47 95.8614 1857.36 95.8805L1864.99 96.0434ZM1860.26 106.313C1861.8 106.346 1863.06 106.261 1864.06 106.058C1865.09 105.888 1865.86 105.616 1866.38 105.243C1866.9 104.902 1867.16 104.492 1867.17 104.012C1867.18 103.532 1867.02 103.144 1866.67 102.849C1866.32 102.585 1865.69 102.444 1864.76 102.424L1856.17 102.241C1855.56 102.228 1855.06 102.377 1854.67 102.689C1854.31 103.001 1854.13 103.397 1854.12 103.877C1854.1 104.613 1854.63 105.184 1855.71 105.592C1856.79 106.031 1858.31 106.271 1860.26 106.313ZM1861.18 76.8056C1863.61 76.8575 1865.68 77.2219 1867.4 77.8986C1869.11 78.5754 1870.4 79.5311 1871.27 80.766C1872.17 81.9695 1872.61 83.4511 1872.57 85.2107C1872.53 86.9383 1872.04 88.4001 1871.08 89.596C1870.16 90.7926 1868.83 91.6924 1867.09 92.2953C1865.35 92.8663 1863.26 93.1258 1860.83 93.0739C1857.02 92.9926 1854.14 92.227 1852.19 90.7769C1850.27 89.3276 1849.33 87.3072 1849.39 84.7158C1849.43 82.9562 1849.91 81.4941 1850.83 80.3295C1851.78 79.1336 1853.13 78.2341 1854.87 77.6312C1856.61 77.0282 1858.71 76.753 1861.18 76.8056ZM1861.08 81.4606C1860.02 81.438 1859.15 81.7235 1858.47 82.317C1857.81 82.9112 1857.48 83.7682 1857.45 84.8879C1857.43 85.9757 1857.73 86.8303 1858.36 87.4519C1859.02 88.0741 1859.87 88.3964 1860.93 88.419C1861.95 88.4408 1862.81 88.155 1863.49 87.5615C1864.18 86.968 1864.53 86.1273 1864.55 85.0396C1864.58 83.9198 1864.26 83.0489 1863.6 82.4267C1862.94 81.8045 1862.1 81.4824 1861.08 81.4606ZM1881.41 74.9331C1879.75 74.8976 1878.54 74.5677 1877.78 73.9434C1877.06 73.2879 1876.71 72.2882 1876.74 70.9445C1876.77 69.5688 1877.16 68.5849 1877.91 67.9928C1878.69 67.3693 1879.91 67.0754 1881.58 67.1109C1883.21 67.1457 1884.4 67.4913 1885.16 68.1475C1885.91 68.7718 1886.27 69.7717 1886.24 71.1474C1886.21 72.4911 1885.81 73.4747 1885.03 74.0982C1884.25 74.6896 1883.04 74.9679 1881.41 74.9331ZM1885.43 77.8036L1884.92 101.798L1876.76 101.624L1877.27 77.6294L1885.43 77.8036ZM1901.43 70.5115L1900.94 93.5942C1900.91 94.7459 1901.17 95.5835 1901.7 96.107C1902.26 96.5992 1903.04 96.8559 1904.03 96.8771C1904.8 96.8935 1905.46 96.8275 1906.01 96.6792C1906.59 96.4995 1907.11 96.2385 1907.56 95.8961L1908.32 100.953C1907.5 101.512 1906.49 101.939 1905.26 102.233C1904.04 102.527 1902.79 102.66 1901.51 102.633C1899.69 102.594 1898.11 102.304 1896.78 101.763C1895.48 101.223 1894.47 100.386 1893.76 99.2502C1893.08 98.1155 1892.74 96.62 1892.75 94.7637L1893.22 72.5927L1901.43 70.5115ZM1908.42 78.2944L1908.29 84.1011L1888.86 83.6861L1888.98 77.8794L1908.42 78.2944ZM1925.76 87.4507C1925.79 86.331 1925.48 85.4444 1924.86 84.7908C1924.26 84.106 1923.44 83.7523 1922.38 83.7298C1921.33 83.7073 1920.41 83.9597 1919.63 84.4872C1918.88 84.9834 1918.35 85.9002 1918.04 87.2378L1911.16 85.4586C1911.66 83.1647 1912.88 81.3504 1914.83 80.0157C1916.78 78.681 1919.5 78.0509 1922.98 78.1253C1925.32 78.1752 1927.3 78.5695 1928.91 79.3081C1930.56 80.0155 1931.8 81.0663 1932.64 82.4604C1933.5 83.8232 1933.92 85.4964 1933.87 87.4799L1933.69 96.2619C1933.66 97.5097 1934.21 98.1455 1935.33 98.1694C1935.9 98.1817 1936.37 98.1276 1936.72 98.0071L1936.14 102.652C1935.17 103.079 1934 103.278 1932.63 103.249C1931.38 103.222 1930.28 103.007 1929.33 102.602C1928.38 102.166 1927.64 101.542 1927.11 100.731C1926.58 99.8871 1926.33 98.8416 1926.36 97.5939L1926.37 97.3059L1927.29 96.9895C1927.26 98.3652 1926.82 99.508 1925.96 100.418C1925.14 101.329 1924.07 101.994 1922.75 102.414C1921.46 102.835 1920.12 103.03 1918.71 103C1917.08 102.965 1915.66 102.679 1914.45 102.141C1913.25 101.603 1912.32 100.847 1911.67 99.8727C1911.05 98.8673 1910.76 97.6447 1910.79 96.2051C1910.82 94.4775 1911.37 93.0647 1912.41 91.9668C1913.49 90.8376 1915.16 90.073 1917.41 89.6729L1926.52 87.995L1926.38 92.313L1921.75 93.1744C1920.79 93.3459 1920.06 93.6184 1919.57 93.9921C1919.12 94.3345 1918.88 94.8736 1918.87 95.6094C1918.85 96.3132 1919.1 96.8466 1919.6 97.2094C1920.1 97.5723 1920.71 97.7612 1921.41 97.7762C1921.96 97.7879 1922.47 97.7188 1922.95 97.5691C1923.47 97.4201 1923.92 97.1897 1924.31 96.8779C1924.7 96.5342 1925.02 96.1088 1925.25 95.6017C1925.49 95.0946 1925.61 94.4891 1925.63 93.7853L1925.76 87.4507ZM1948.63 68.9747L1948.07 94.9848C1948.05 96.0405 1948.21 96.7961 1948.55 97.2515C1948.9 97.707 1949.48 97.9435 1950.32 97.9613C1950.8 97.9715 1951.2 97.9481 1951.52 97.8909C1951.84 97.8338 1952.22 97.746 1952.68 97.6276L1952.04 102.511C1951.46 102.851 1950.7 103.123 1949.77 103.327C1948.84 103.531 1947.92 103.623 1947.03 103.604C1944.47 103.55 1942.62 102.918 1941.5 101.71C1940.37 100.502 1939.84 98.5537 1939.89 95.8663L1940.47 68.8005L1948.63 68.9747ZM2006.53 72.7075L2005.85 104.38L1998.56 104.225L1998.87 89.6839L1999.32 79.9472L1999.22 79.9452L1990.88 104.061L1984.21 103.918L1976.91 79.4687L1976.81 79.4667L1976.84 89.2136L1976.53 103.754L1969.19 103.597L1969.86 71.9247L1981.62 72.1757L1986.27 88.4066L1987.9 95.163L1988 95.1651L1989.96 88.5335L1995.25 72.4667L2006.53 72.7075ZM2025.91 89.5891C2025.93 88.4694 2025.63 87.5828 2025.01 86.9293C2024.41 86.2444 2023.59 85.8907 2022.53 85.8682C2021.48 85.8457 2020.56 86.0981 2019.78 86.6256C2019.03 87.1218 2018.5 88.0386 2018.19 89.3762L2011.31 87.597C2011.81 85.3031 2013.03 83.4888 2014.98 82.1541C2016.93 80.8194 2019.65 80.1893 2023.13 80.2637C2025.47 80.3136 2027.44 80.7079 2029.06 81.4465C2030.71 82.1539 2031.95 83.2047 2032.79 84.5988C2033.65 85.9616 2034.07 87.6348 2034.02 89.6183L2033.84 98.4003C2033.81 99.6481 2034.36 100.284 2035.48 100.308C2036.05 100.32 2036.52 100.266 2036.87 100.146L2036.29 104.79C2035.32 105.218 2034.15 105.417 2032.77 105.387C2031.53 105.361 2030.43 105.145 2029.48 104.741C2028.52 104.304 2027.79 103.68 2027.26 102.869C2026.73 102.026 2026.48 100.98 2026.51 99.7323L2026.52 99.4443L2027.44 99.1279C2027.41 100.504 2026.97 101.646 2026.11 102.556C2025.29 103.467 2024.22 104.132 2022.9 104.552C2021.61 104.973 2020.26 105.168 2018.86 105.138C2017.23 105.103 2015.81 104.817 2014.6 104.279C2013.4 103.741 2012.47 102.985 2011.82 102.011C2011.2 101.006 2010.91 99.7832 2010.94 98.3435C2010.97 96.6159 2011.52 95.2031 2012.56 94.1052C2013.64 92.976 2015.31 92.2114 2017.56 91.8113L2026.67 90.1334L2026.53 94.4514L2021.9 95.3128C2020.94 95.4843 2020.21 95.7569 2019.72 96.1305C2019.27 96.4729 2019.03 97.012 2019.01 97.7478C2019 98.4516 2019.24 98.985 2019.75 99.3478C2020.25 99.7107 2020.86 99.8996 2021.56 99.9147C2022.1 99.9263 2022.62 99.8572 2023.1 99.7075C2023.62 99.5585 2024.07 99.3281 2024.46 99.0164C2024.85 98.6726 2025.17 98.2472 2025.4 97.7401C2025.64 97.233 2025.76 96.6275 2025.78 95.9237L2025.91 89.5891ZM2039.99 105.109L2040.5 81.1147L2047.7 81.2684L2047.92 86.4583C2048.57 84.6797 2049.49 83.3072 2050.7 82.3407C2051.94 81.3749 2053.48 80.9118 2055.34 80.9514C2055.95 80.9644 2056.46 81.0233 2056.87 81.1281C2057.32 81.2337 2057.67 81.3692 2057.92 81.5346L2056.96 88.2356C2056.64 88.1008 2056.23 87.996 2055.72 87.9211C2055.24 87.8148 2054.65 87.7542 2053.95 87.7392C2052.99 87.7187 2052.09 87.9075 2051.24 88.3057C2050.4 88.7038 2049.72 89.3133 2049.19 90.1342C2048.69 90.9238 2048.43 91.9424 2048.4 93.1901L2048.15 105.283L2039.99 105.109ZM2087.47 82.1175L2075.69 94.1568L2074.14 94.5559L2067.11 102.088L2067.25 93.7365L2078.4 81.9238L2087.47 82.1175ZM2069.5 71.5555L2068.77 105.724L2060.61 105.549L2061.34 71.3813L2069.5 71.5555ZM2077.04 89.0966L2087.48 106.123L2078.46 105.931L2071.61 93.7817L2077.04 89.0966ZM2100.85 106.889C2098.19 106.832 2095.9 106.287 2093.97 105.254C2092.07 104.221 2090.61 102.765 2089.6 100.887C2088.58 99.0091 2088.1 96.7584 2088.16 94.135C2088.21 91.5116 2088.79 89.2833 2089.88 87.4503C2090.98 85.6173 2092.48 84.225 2094.39 83.2736C2096.33 82.3228 2098.53 81.8737 2101 81.9263C2103.52 81.9802 2105.66 82.5219 2107.39 83.5512C2109.17 84.5493 2110.5 85.922 2111.39 87.6694C2112.28 89.3848 2112.7 91.3463 2112.65 93.5538C2112.64 94.1297 2112.61 94.7052 2112.57 95.2804C2112.53 95.8556 2112.47 96.3344 2112.39 96.717L2093.39 96.3112L2093.48 91.9442L2108.89 92.2731L2104.97 93.6778C2105.01 91.7582 2104.69 90.279 2104.01 89.2403C2103.36 88.2021 2102.31 87.6677 2100.87 87.637C2099.85 87.6151 2098.97 87.8363 2098.22 88.3005C2097.5 88.7653 2096.95 89.5055 2096.54 90.5211C2096.17 91.5374 2095.96 92.8453 2095.93 94.4449C2095.89 96.0126 2096.07 97.2967 2096.47 98.2974C2096.86 99.266 2097.44 99.9825 2098.2 100.447C2098.96 100.879 2099.88 101.107 2100.97 101.13C2102.19 101.156 2103.15 100.937 2103.86 100.472C2104.61 100.008 2105.17 99.3473 2105.54 98.491L2112.02 100.79C2111.54 102.156 2110.73 103.307 2109.59 104.243C2108.49 105.147 2107.16 105.823 2105.61 106.27C2104.1 106.718 2102.51 106.924 2100.85 106.889ZM2127.36 75.3356L2126.87 98.4184C2126.84 99.5701 2127.1 100.408 2127.63 100.931C2128.2 101.423 2128.98 101.68 2129.97 101.701C2130.74 101.718 2131.39 101.652 2131.94 101.503C2132.52 101.324 2133.04 101.063 2133.49 100.72L2134.25 105.778C2133.44 106.336 2132.42 106.763 2131.2 107.057C2129.98 107.351 2128.72 107.484 2127.44 107.457C2125.62 107.418 2124.04 107.128 2122.71 106.587C2121.41 106.048 2120.4 105.21 2119.69 104.074C2119.01 102.94 2118.67 101.444 2118.68 99.5879L2119.16 77.4169L2127.36 75.3356ZM2134.35 83.1186L2134.23 88.9252L2114.79 88.5102L2114.91 82.7036L2134.35 83.1186ZM2142.26 80.5028C2140.59 80.4672 2139.38 80.1373 2138.63 79.5131C2137.91 78.8575 2137.56 77.8579 2137.59 76.5142C2137.62 75.1385 2138.01 74.1546 2138.76 73.5624C2139.54 72.939 2140.76 72.645 2142.42 72.6805C2144.05 72.7154 2145.25 73.0609 2146 73.7172C2146.76 74.3414 2147.12 75.3414 2147.09 76.7171C2147.06 78.0608 2146.66 79.0444 2145.87 79.6678C2145.09 80.2593 2143.89 80.5376 2142.26 80.5028ZM2146.28 83.3732L2145.76 107.368L2137.61 107.194L2138.12 83.199L2146.28 83.3732ZM2151.57 107.492L2152.08 83.4972L2159.38 83.653L2159.63 91.9163L2158.74 90.9851C2159.1 89.2643 2159.69 87.8366 2160.51 86.7019C2161.37 85.5679 2162.41 84.726 2163.64 84.1761C2164.9 83.5948 2166.3 83.3206 2167.83 83.3534C2169.5 83.3889 2170.93 83.7396 2172.13 84.4054C2173.37 85.0719 2174.32 86.0365 2175 87.2993C2175.68 88.562 2176 90.1372 2175.95 92.0248L2175.61 108.005L2167.46 107.831L2167.75 94.0101C2167.79 92.3464 2167.49 91.1879 2166.86 90.5344C2166.24 89.8808 2165.43 89.5435 2164.44 89.5223C2163.67 89.5059 2162.95 89.6825 2162.27 90.0521C2161.59 90.3897 2161.05 90.9543 2160.65 91.7459C2160.24 92.5375 2160.03 93.6052 2160 94.9488L2159.73 107.666L2151.57 107.492ZM2205.21 78.198L2205.76 83.6831C2205.57 83.6151 2205.38 83.579 2205.19 83.5749C2205 83.5388 2204.8 83.5187 2204.61 83.5146C2203.2 83.4845 2202.14 83.8139 2201.42 84.5027C2200.74 85.1602 2200.38 86.0009 2200.36 87.0246L2197.5 85.9074C2197.53 84.5957 2197.8 83.3371 2198.3 82.1316C2198.81 80.9261 2199.57 79.9501 2200.58 79.2034C2201.62 78.4575 2202.9 78.1009 2204.44 78.1337C2204.54 78.1357 2204.65 78.1381 2204.78 78.1408C2204.94 78.1442 2205.08 78.1633 2205.21 78.198ZM2196.42 103.12C2199.2 103.18 2201.31 103.817 2202.76 105.032C2204.24 106.216 2204.96 107.895 2204.91 110.071C2204.87 112.055 2204.29 113.691 2203.17 114.979C2202.06 116.267 2200.5 117.21 2198.5 117.808C2196.54 118.438 2194.21 118.725 2191.52 118.667C2187.17 118.574 2184.05 117.963 2182.15 116.835C2180.26 115.706 2179.33 114.214 2179.37 112.358C2179.4 111.015 2179.96 109.938 2181.07 109.13C2182.17 108.321 2183.99 107.912 2186.52 107.902L2186.31 108.666C2184.37 108.368 2182.92 107.761 2181.98 106.845C2181.04 105.928 2180.59 104.703 2180.62 103.167C2180.65 101.631 2181.29 100.396 2182.52 99.4627C2183.76 98.5288 2185.39 98.0355 2187.4 97.9825L2190.35 99.4377L2189.58 99.4213C2188.33 99.4587 2187.45 99.6478 2186.93 99.9888C2186.41 100.33 2186.14 100.756 2186.13 101.268C2186.12 101.812 2186.34 102.233 2186.78 102.53C2187.22 102.796 2187.89 102.938 2188.79 102.957L2196.42 103.12ZM2191.68 113.389C2193.22 113.422 2194.49 113.337 2195.48 113.134C2196.51 112.964 2197.28 112.693 2197.8 112.32C2198.32 111.979 2198.59 111.568 2198.6 111.088C2198.61 110.609 2198.44 110.221 2198.1 109.925C2197.75 109.662 2197.11 109.52 2196.18 109.501L2187.59 109.317C2186.99 109.304 2186.49 109.454 2186.1 109.765C2185.74 110.078 2185.55 110.474 2185.54 110.954C2185.53 111.69 2186.06 112.261 2187.14 112.668C2188.22 113.107 2189.73 113.348 2191.68 113.389ZM2192.6 83.8823C2195.03 83.9342 2197.11 84.2985 2198.82 84.9753C2200.53 85.652 2201.83 86.6078 2202.7 87.8427C2203.6 89.0462 2204.03 90.5278 2203.99 92.2874C2203.96 94.015 2203.46 95.4767 2202.51 96.6726C2201.59 97.8692 2200.25 98.769 2198.51 99.372C2196.77 99.943 2194.69 100.202 2192.25 100.151C2188.45 100.069 2185.57 99.3036 2183.61 97.8536C2181.69 96.4042 2180.76 94.3839 2180.81 91.7924C2180.85 90.0328 2181.33 88.5707 2182.25 87.4061C2183.21 86.2102 2184.55 85.3108 2186.29 84.7078C2188.04 84.1049 2190.14 83.8297 2192.6 83.8823ZM2192.5 88.5372C2191.45 88.5147 2190.58 88.8002 2189.89 89.3937C2189.24 89.9879 2188.9 90.8448 2188.88 91.9646C2188.85 93.0523 2189.16 93.907 2189.78 94.5285C2190.44 95.1507 2191.3 95.4731 2192.35 95.4956C2193.38 95.5175 2194.23 95.2317 2194.92 94.6381C2195.6 94.0446 2195.96 93.204 2195.98 92.1162C2196 90.9965 2195.69 90.1255 2195.03 89.5033C2194.37 88.8811 2193.53 88.5591 2192.5 88.5372ZM2250.21 109.598L2241.71 109.416L2239.66 102.219L2228.81 101.987L2226.4 109.09L2218.1 108.912L2229.91 77.4773L2239.8 77.6883L2250.21 109.598ZM2230.47 96.4054L2238.24 96.5714L2234.63 83.6754L2230.47 96.4054ZM2277.19 79.7351L2277.74 85.2202C2277.55 85.1521 2277.36 85.116 2277.17 85.1119C2276.98 85.0758 2276.79 85.0557 2276.6 85.0516C2275.19 85.0215 2274.13 85.3509 2273.41 86.0397C2272.72 86.6972 2272.37 87.5379 2272.34 88.5616L2269.49 87.4444C2269.52 86.1327 2269.78 84.8741 2270.29 83.6686C2270.79 82.4631 2271.55 81.4871 2272.56 80.7404C2273.6 79.9945 2274.89 79.6379 2276.42 79.6707C2276.52 79.6727 2276.63 79.6751 2276.76 79.6778C2276.92 79.6813 2277.06 79.7003 2277.19 79.7351ZM2268.4 104.657C2271.18 104.717 2273.3 105.354 2274.74 106.569C2276.22 107.753 2276.94 109.432 2276.89 111.608C2276.85 113.592 2276.27 115.228 2275.16 116.516C2274.04 117.805 2272.48 118.747 2270.49 119.345C2268.52 119.975 2266.19 120.262 2263.51 120.204C2259.16 120.111 2256.03 119.5 2254.14 118.372C2252.24 117.243 2251.31 115.751 2251.35 113.895C2251.38 112.552 2251.95 111.475 2253.05 110.667C2254.16 109.858 2255.97 109.449 2258.5 109.439L2258.3 110.203C2256.35 109.905 2254.91 109.298 2253.96 108.382C2253.02 107.466 2252.57 106.24 2252.6 104.704C2252.64 103.168 2253.27 101.933 2254.51 101C2255.74 100.066 2257.37 99.5725 2259.39 99.5195L2262.33 100.975L2261.57 100.958C2260.32 100.996 2259.43 101.185 2258.91 101.526C2258.39 101.867 2258.13 102.293 2258.12 102.805C2258.11 103.349 2258.32 103.77 2258.76 104.067C2259.2 104.333 2259.87 104.475 2260.77 104.494L2268.4 104.657ZM2263.67 114.926C2265.2 114.959 2266.47 114.874 2267.47 114.671C2268.49 114.501 2269.27 114.23 2269.79 113.857C2270.31 113.516 2270.57 113.105 2270.58 112.625C2270.59 112.146 2270.42 111.758 2270.08 111.462C2269.73 111.199 2269.1 111.057 2268.17 111.038L2259.58 110.854C2258.97 110.841 2258.47 110.991 2258.08 111.302C2257.72 111.615 2257.54 112.011 2257.53 112.491C2257.51 113.227 2258.04 113.798 2259.12 114.205C2260.2 114.644 2261.72 114.885 2263.67 114.926ZM2264.59 85.4193C2267.02 85.4712 2269.09 85.8355 2270.8 86.5123C2272.52 87.189 2273.81 88.1448 2274.68 89.3797C2275.58 90.5832 2276.01 92.0648 2275.98 93.8244C2275.94 95.552 2275.44 97.0137 2274.49 98.2096C2273.57 99.4062 2272.24 100.306 2270.5 100.909C2268.76 101.48 2266.67 101.739 2264.24 101.688C2260.43 101.606 2257.55 100.841 2255.6 99.3906C2253.68 97.9412 2252.74 95.9209 2252.8 93.3295C2252.84 91.5699 2253.31 90.1078 2254.24 88.9432C2255.19 87.7472 2256.54 86.8478 2258.28 86.2448C2260.02 85.6419 2262.12 85.3667 2264.59 85.4193ZM2264.49 90.0742C2263.43 90.0517 2262.56 90.3372 2261.88 90.9307C2261.22 91.5249 2260.88 92.3819 2260.86 93.5016C2260.84 94.5894 2261.14 95.444 2261.77 96.0655C2262.42 96.6877 2263.28 97.0101 2264.34 97.0326C2265.36 97.0545 2266.22 96.7687 2266.9 96.1752C2267.59 95.5816 2267.94 94.741 2267.96 93.6533C2267.99 92.5335 2267.67 91.6625 2267.01 91.0403C2266.35 90.4181 2265.51 90.0961 2264.49 90.0742ZM2291.87 110.967C2289.21 110.911 2286.92 110.366 2284.99 109.332C2283.09 108.299 2281.63 106.844 2280.62 104.966C2279.6 103.088 2279.12 100.837 2279.18 98.2136C2279.23 95.5902 2279.81 93.362 2280.9 91.529C2282 89.696 2283.5 88.3037 2285.41 87.3522C2287.35 86.4014 2289.55 85.9524 2292.01 86.005C2294.54 86.0589 2296.68 86.6006 2298.41 87.6299C2300.18 88.628 2301.52 90.0007 2302.41 91.7481C2303.3 93.4635 2303.72 95.425 2303.67 97.6325C2303.66 98.2084 2303.63 98.7839 2303.59 99.3591C2303.54 99.9343 2303.49 100.413 2303.41 100.796L2284.41 100.39L2284.5 96.0229L2299.91 96.3518L2295.99 97.7565C2296.03 95.8369 2295.71 94.3577 2295.03 93.3189C2294.38 92.2808 2293.33 91.7464 2291.89 91.7157C2290.87 91.6938 2289.98 91.915 2289.24 92.3791C2288.52 92.844 2287.96 93.5842 2287.56 94.5998C2287.18 95.616 2286.98 96.924 2286.95 98.5236C2286.91 100.091 2287.09 101.375 2287.49 102.376C2287.88 103.345 2288.46 104.061 2289.22 104.525C2289.98 104.958 2290.9 105.186 2291.99 105.209C2293.2 105.235 2294.17 105.015 2294.88 104.55C2295.63 104.086 2296.19 103.426 2296.56 102.57L2303.04 104.869C2302.56 106.235 2301.75 107.386 2300.61 108.322C2299.5 109.226 2298.18 109.902 2296.63 110.349C2295.12 110.797 2293.53 111.003 2291.87 110.967ZM2307.96 110.831L2308.47 86.8364L2315.76 86.9922L2316.02 95.2555L2315.13 94.3242C2315.48 92.6035 2316.07 91.1758 2316.9 90.0411C2317.76 88.9071 2318.8 88.0652 2320.03 87.5153C2321.29 86.934 2322.68 86.6598 2324.22 86.6926C2325.88 86.7281 2327.32 87.0788 2328.52 87.7446C2329.75 88.4111 2330.71 89.3757 2331.39 90.6385C2332.06 91.9012 2332.38 93.4764 2332.34 95.3639L2332 111.344L2323.84 111.17L2324.14 97.3493C2324.17 95.6856 2323.88 94.5271 2323.25 93.8736C2322.62 93.22 2321.82 92.8827 2320.82 92.8615C2320.06 92.8451 2319.33 93.0217 2318.65 93.3913C2317.97 93.7288 2317.43 94.2934 2317.03 95.0851C2316.63 95.8767 2316.42 96.9443 2316.39 98.288L2316.12 111.005L2307.96 110.831ZM2349.61 87.2348C2352.04 87.2867 2354.05 87.6817 2355.64 88.4197C2357.25 89.1263 2358.5 90.0651 2359.37 91.236C2360.27 92.3755 2360.82 93.6036 2361.02 94.92L2353.43 97.2546C2353.24 95.8741 2352.84 94.8415 2352.25 94.1567C2351.69 93.4405 2350.85 93.0705 2349.73 93.0466C2348.7 93.0247 2347.84 93.2462 2347.12 93.7111C2346.44 94.1446 2345.91 94.8695 2345.54 95.8858C2345.17 96.8701 2344.96 98.146 2344.93 99.7137C2344.9 101.281 2345.06 102.565 2345.42 103.565C2345.79 104.533 2346.31 105.249 2347.01 105.711C2347.7 106.142 2348.53 106.368 2349.49 106.389C2350.29 106.406 2350.95 106.276 2351.47 105.999C2352.02 105.69 2352.48 105.252 2352.84 104.684C2353.2 104.115 2353.44 103.416 2353.56 102.587L2360.85 105.095C2360.6 106.498 2359.96 107.748 2358.94 108.847C2357.96 109.914 2356.66 110.751 2355.05 111.356C2353.44 111.962 2351.56 112.242 2349.42 112.196C2346.79 112.14 2344.51 111.612 2342.58 110.61C2340.65 109.577 2339.18 108.121 2338.16 106.243C2337.15 104.333 2336.67 102.066 2336.72 99.4425C2336.78 96.8191 2337.36 94.5908 2338.45 92.7578C2339.55 90.8928 2341.05 89.5005 2342.96 88.581C2344.9 87.6303 2347.12 87.1815 2349.61 87.2348ZM2389.17 88.5596L2379.93 112.368C2378.98 114.876 2377.96 116.871 2376.87 118.352C2375.78 119.833 2374.51 120.894 2373.06 121.535C2371.6 122.176 2369.87 122.475 2367.85 122.432C2366.51 122.404 2365.28 122.233 2364.17 121.921C2363.05 121.61 2362.09 121.189 2361.27 120.659L2363.02 115.175C2363.58 115.603 2364.18 115.904 2364.82 116.078C2365.46 116.284 2366.27 116.397 2367.26 116.418C2368.19 116.438 2368.94 116.294 2369.53 115.986C2370.14 115.68 2370.63 115.082 2371.01 114.194L2371.66 112.719L2369.02 106.133L2362.2 87.9838L2371.18 88.1754L2374.58 101.931L2375.62 107.043L2377.08 101.792L2381.06 88.3864L2389.17 88.5596Z" fill="#282828"/>
<rect x="299.466" y="88.2644" width="1516.05" height="99" transform="rotate(-2.19244 299.466 88.2644)" fill="#3CC6F2"/>
<path d="M303.111 147.096C302.588 149.326 301.682 151.186 300.394 152.676C299.105 154.135 297.546 155.235 295.717 155.977C293.887 156.688 291.853 157.086 289.614 157.172C286.417 157.294 283.626 156.761 281.243 155.571C278.858 154.349 276.996 152.547 275.656 150.165C274.316 147.782 273.58 144.88 273.449 141.459C273.318 138.037 273.83 135.088 274.984 132.61C276.138 130.132 277.858 128.208 280.143 126.84C282.427 125.44 285.152 124.679 288.318 124.558C290.524 124.473 292.567 124.715 294.446 125.284C296.324 125.82 297.927 126.704 299.255 127.934C300.583 129.164 301.557 130.776 302.178 132.769L295.047 135.972C294.524 134.007 293.736 132.676 292.685 131.98C291.665 131.282 290.388 130.963 288.853 131.022C287.35 131.079 286.053 131.497 284.962 132.276C283.903 133.053 283.098 134.188 282.547 135.682C282.027 137.143 281.808 138.961 281.891 141.136C281.973 143.278 282.314 145.074 282.914 146.524C283.514 147.974 284.372 149.046 285.487 149.74C286.634 150.433 288.023 150.748 289.654 150.686C291.189 150.627 292.468 150.162 293.492 149.29C294.546 148.385 295.231 147.046 295.547 145.272L303.111 147.096ZM307.471 156.008L306.553 132.025L313.747 131.75L314.281 136.917C314.82 135.103 315.662 133.678 316.808 132.642C317.985 131.604 319.501 131.049 321.355 130.978C321.963 130.955 322.476 130.983 322.896 131.063C323.347 131.142 323.704 131.257 323.966 131.407L323.407 138.153C323.083 138.037 322.663 137.957 322.149 137.913C321.666 137.836 321.073 137.81 320.369 137.837C319.41 137.874 318.522 138.116 317.707 138.563C316.891 139.011 316.244 139.66 315.764 140.511C315.315 141.329 315.114 142.361 315.162 143.609L315.625 155.696L307.471 156.008ZM338.279 130.33C340.805 130.234 343.03 130.645 344.955 131.564C346.91 132.45 348.451 133.816 349.579 135.662C350.737 137.475 351.366 139.693 351.467 142.315C351.567 144.937 351.11 147.212 350.095 149.14C349.111 151.035 347.678 152.515 345.798 153.58C343.948 154.611 341.76 155.175 339.234 155.272C336.771 155.366 334.563 154.971 332.607 154.085C330.651 153.167 329.093 151.802 327.935 149.989C326.808 148.142 326.194 145.908 326.093 143.286C325.993 140.664 326.435 138.405 327.419 136.51C328.434 134.582 329.883 133.102 331.764 132.069C333.645 131.004 335.817 130.425 338.279 130.33ZM338.501 136.134C337.574 136.17 336.783 136.424 336.128 136.898C335.474 137.371 334.99 138.11 334.676 139.115C334.362 140.119 334.235 141.405 334.295 142.972C334.355 144.539 334.58 145.811 334.97 146.789C335.358 147.735 335.898 148.435 336.587 148.889C337.276 149.311 338.084 149.504 339.011 149.468C339.971 149.432 340.778 149.177 341.432 148.703C342.085 148.198 342.569 147.459 342.884 146.486C343.198 145.481 343.325 144.196 343.265 142.629C343.205 141.062 342.98 139.79 342.59 138.812C342.201 137.834 341.661 137.134 340.973 136.712C340.284 136.29 339.46 136.097 338.501 136.134ZM386.403 128.968L394.941 128.642L388.616 152.901L378.831 153.276L373.903 138.718L370.245 153.605L360.509 153.977L352.3 130.274L360.886 129.945L365.592 147.49L369.615 129.611L377.673 129.303L383.003 146.824L386.403 128.968ZM407.326 152.665C405.344 152.741 403.582 152.328 402.043 151.427C400.534 150.492 399.328 149.113 398.426 147.29C397.555 145.466 397.071 143.259 396.972 140.669C396.869 137.983 397.197 135.696 397.958 133.81C398.75 131.922 399.879 130.454 401.344 129.405C402.841 128.355 404.581 127.792 406.563 127.716C408.737 127.633 410.506 128.238 411.868 129.531C413.262 130.79 414.189 132.436 414.651 134.468L413.922 135.504L413.243 117.757L421.397 117.445L422.704 151.596L415.414 151.875L414.574 143.742L415.561 144.424C415.43 146.03 414.988 147.44 414.234 148.654C413.512 149.867 412.556 150.832 411.366 151.55C410.208 152.235 408.861 152.607 407.326 152.665ZM409.926 146.561C410.854 146.526 411.628 146.256 412.249 145.752C412.901 145.215 413.384 144.444 413.698 143.439C414.012 142.434 414.141 141.212 414.086 139.773C414.034 138.43 413.815 137.302 413.428 136.388C413.071 135.441 412.548 134.74 411.858 134.286C411.199 133.799 410.406 133.574 409.479 133.609C408.072 133.663 406.973 134.233 406.182 135.32C405.421 136.374 405.084 138.02 405.17 140.259C405.256 142.497 405.718 144.129 406.558 145.153C407.397 146.146 408.519 146.615 409.926 146.561ZM434.789 151.134L434.092 132.907C434.06 132.076 434.027 131.228 433.994 130.365C433.992 129.468 433.973 128.556 433.937 127.629C432.919 128.629 431.784 129.521 430.533 130.305C429.281 131.058 427.957 131.589 426.559 131.898L425.531 125.117C426.36 125.021 427.232 124.779 428.145 124.392C429.091 124.004 430.018 123.536 430.926 122.989C431.834 122.442 432.644 121.866 433.358 121.262C434.07 120.627 434.607 120.014 434.968 119.424L441.54 119.172L442.751 150.829L434.789 151.134ZM461.748 150.582C457.431 150.747 454.101 149.498 451.757 146.833C449.445 144.168 448.187 140.149 447.981 134.777C447.775 129.405 448.723 125.302 450.824 122.467C452.957 119.631 456.182 118.131 460.499 117.966C464.816 117.8 468.13 119.051 470.442 121.716C472.786 124.38 474.06 128.399 474.266 133.771C474.472 139.143 473.508 143.247 471.375 146.082C469.274 148.917 466.065 150.417 461.748 150.582ZM461.502 144.155C462.685 144.109 463.632 143.753 464.343 143.085C465.053 142.385 465.54 141.31 465.805 139.859C466.1 138.374 466.202 136.449 466.112 134.083C466.021 131.717 465.773 129.821 465.366 128.395C464.99 126.937 464.422 125.901 463.662 125.29C462.9 124.647 461.928 124.348 460.745 124.393C459.594 124.437 458.648 124.81 457.906 125.51C457.195 126.178 456.692 127.254 456.396 128.739C456.132 130.19 456.045 132.099 456.135 134.465C456.226 136.831 456.459 138.744 456.835 140.202C457.242 141.628 457.826 142.662 458.587 143.305C459.379 143.916 460.351 144.199 461.502 144.155ZM529.812 115.793L531.024 147.449L523.733 147.728L523.177 133.195L523.044 123.449L522.948 123.453L516.059 148.022L509.392 148.278L500.644 124.307L500.548 124.31L501.161 134.038L501.717 148.571L494.379 148.852L493.167 117.195L504.918 116.746L510.523 132.671L512.555 139.318L512.651 139.314L514.218 132.577L518.54 116.224L529.812 115.793ZM550.165 131.489C550.122 130.37 549.769 129.503 549.105 128.888C548.471 128.24 547.627 127.936 546.572 127.976C545.517 128.017 544.616 128.323 543.869 128.896C543.153 129.436 542.677 130.383 542.441 131.737L535.471 130.371C535.831 128.051 536.944 126.167 538.81 124.719C540.676 123.27 543.351 122.479 546.837 122.346C549.171 122.257 551.167 122.532 552.825 123.174C554.513 123.781 555.815 124.756 556.731 126.098C557.678 127.407 558.19 129.053 558.265 131.035L558.601 139.813C558.649 141.06 559.233 141.662 560.352 141.619C560.927 141.597 561.389 141.515 561.736 141.374L561.434 146.045C560.492 146.529 559.333 146.798 557.958 146.85C556.711 146.898 555.601 146.749 554.627 146.402C553.651 146.023 552.877 145.444 552.303 144.665C551.727 143.855 551.415 142.826 551.368 141.579L551.357 141.291L552.255 140.92C552.308 142.295 551.936 143.462 551.14 144.422C550.376 145.379 549.348 146.107 548.054 146.605C546.792 147.102 545.457 147.377 544.05 147.431C542.419 147.493 540.987 147.292 539.752 146.827C538.517 146.362 537.546 145.663 536.838 144.729C536.16 143.762 535.794 142.559 535.739 141.12C535.673 139.394 536.13 137.951 537.11 136.793C538.121 135.601 539.738 134.739 541.959 134.205L550.953 131.988L551.07 136.306L546.502 137.442C545.55 137.67 544.842 137.986 544.377 138.388C543.942 138.757 543.739 139.309 543.767 140.044C543.794 140.748 544.07 141.266 544.596 141.598C545.121 141.93 545.735 142.083 546.438 142.056C546.982 142.035 547.491 141.935 547.964 141.757C548.47 141.578 548.908 141.321 549.28 140.986C549.65 140.62 549.937 140.176 550.141 139.656C550.346 139.136 550.434 138.524 550.407 137.821L550.165 131.489ZM565.141 146.143L564.223 122.161L571.418 121.885L571.952 127.053C572.491 125.239 573.333 123.813 574.478 122.777C575.655 121.739 577.171 121.185 579.026 121.114C579.634 121.09 580.147 121.119 580.566 121.199C581.018 121.278 581.374 121.392 581.636 121.542L581.078 128.288C580.753 128.173 580.334 128.093 579.82 128.048C579.337 127.971 578.743 127.946 578.04 127.972C577.08 128.009 576.193 128.251 575.377 128.699C574.562 129.146 573.914 129.796 573.435 130.647C572.986 131.464 572.785 132.497 572.833 133.744L573.295 145.831L565.141 146.143ZM611.166 120.364L600.124 133.083L598.606 133.574L592.041 141.511L591.673 133.167L602.1 120.711L611.166 120.364ZM592.598 110.891L593.905 145.042L585.751 145.354L584.444 111.203L592.598 110.891ZM601.177 127.951L612.612 144.326L603.594 144.671L596.036 132.952L601.177 127.951ZM626.046 144.292C623.392 144.393 621.07 143.986 619.082 143.069C617.125 142.152 615.584 140.786 614.458 138.971C613.332 137.157 612.718 134.939 612.618 132.317C612.517 129.695 612.959 127.436 613.944 125.541C614.928 123.646 616.344 122.167 618.193 121.103C620.074 120.039 622.245 119.459 624.707 119.365C627.233 119.268 629.395 119.682 631.191 120.606C633.019 121.496 634.429 122.787 635.423 124.479C636.415 126.138 636.953 128.071 637.038 130.277C637.06 130.853 637.066 131.429 637.056 132.006C637.046 132.582 637.016 133.064 636.967 133.45L617.973 134.177L617.806 129.812L633.203 129.223L629.374 130.859C629.301 128.94 628.893 127.483 628.15 126.486C627.44 125.489 626.365 125.018 624.926 125.073C623.903 125.112 623.032 125.385 622.315 125.893C621.63 126.4 621.115 127.172 620.771 128.21C620.458 129.247 620.332 130.564 620.394 132.163C620.454 133.73 620.71 135.001 621.164 135.977C621.617 136.92 622.235 137.601 623.02 138.019C623.803 138.405 624.738 138.578 625.825 138.536C627.041 138.49 627.991 138.213 628.676 137.706C629.393 137.199 629.911 136.506 630.23 135.629L636.835 137.538C636.44 138.93 635.702 140.127 634.619 141.13C633.567 142.099 632.283 142.852 630.767 143.391C629.282 143.928 627.709 144.228 626.046 144.292ZM650.634 111.215L651.517 134.286C651.561 135.437 651.865 136.258 652.428 136.749C653.022 137.207 653.815 137.416 654.806 137.379C655.573 137.349 656.226 137.244 656.763 137.063C657.332 136.85 657.833 136.558 658.267 136.189L659.323 141.193C658.546 141.799 657.556 142.285 656.353 142.651C655.15 143.018 653.909 143.225 652.63 143.274C650.807 143.344 649.215 143.149 647.852 142.688C646.521 142.227 645.467 141.451 644.689 140.36C643.942 139.268 643.518 137.795 643.415 135.941L642.566 113.782L650.634 111.215ZM658.073 118.568L658.295 124.372L638.869 125.115L638.647 119.311L658.073 118.568ZM665.81 115.486C664.147 115.549 662.92 115.292 662.129 114.714C661.37 114.102 660.964 113.125 660.912 111.782C660.86 110.407 661.19 109.402 661.902 108.766C662.645 108.097 663.848 107.731 665.51 107.667C667.141 107.605 668.353 107.879 669.144 108.489C669.935 109.067 670.357 110.044 670.409 111.419C670.461 112.762 670.115 113.768 669.372 114.437C668.628 115.073 667.44 115.423 665.81 115.486ZM669.993 118.111L670.911 142.094L662.757 142.406L661.839 118.424L669.993 118.111ZM676.716 141.872L675.798 117.889L683.088 117.61L683.836 125.844L682.89 124.967C683.143 123.228 683.648 121.768 684.403 120.586C685.19 119.403 686.181 118.5 687.374 117.878C688.598 117.223 689.977 116.866 691.512 116.807C693.175 116.744 694.626 117.008 695.865 117.601C697.137 118.193 698.148 119.099 698.9 120.319C699.651 121.539 700.063 123.093 700.135 124.979L700.746 140.952L692.592 141.264L692.063 127.45C692 125.787 691.636 124.648 690.972 124.033C690.308 123.418 689.48 123.13 688.489 123.168C687.721 123.197 687.009 123.416 686.353 123.826C685.694 124.203 685.189 124.799 684.836 125.613C684.483 126.427 684.332 127.506 684.383 128.849L684.87 141.559L676.716 141.872ZM728.51 109.434L729.391 114.877C729.197 114.82 729.004 114.795 728.812 114.803C728.619 114.778 728.426 114.77 728.235 114.777C726.828 114.831 725.786 115.223 725.109 115.953C724.464 116.651 724.16 117.511 724.199 118.534L721.281 117.589C721.231 116.278 721.422 115.006 721.856 113.772C722.289 112.539 722.986 111.519 723.948 110.714C724.942 109.907 726.206 109.475 727.741 109.416C727.837 109.412 727.949 109.408 728.077 109.403C728.237 109.397 728.381 109.407 728.51 109.434ZM721.221 134.836C724.003 134.729 726.152 135.24 727.668 136.366C729.215 137.46 730.03 139.094 730.113 141.268C730.189 143.251 729.709 144.919 728.672 146.271C727.635 147.624 726.137 148.658 724.179 149.373C722.254 150.12 719.949 150.544 717.263 150.647C712.914 150.813 709.76 150.39 707.799 149.376C705.839 148.362 704.823 146.928 704.752 145.073C704.701 143.73 705.203 142.622 706.258 141.749C707.314 140.876 709.103 140.36 711.627 140.199L711.465 140.974C709.504 140.793 708.027 140.273 707.034 139.414C706.04 138.555 705.514 137.359 705.455 135.824C705.396 134.289 705.956 133.019 707.135 132.013C708.313 131.007 709.908 130.417 711.918 130.244L714.945 131.522L714.178 131.551C712.933 131.663 712.062 131.904 711.564 132.275C711.066 132.647 710.826 133.088 710.846 133.6C710.867 134.144 711.107 134.551 711.565 134.821C712.023 135.06 712.699 135.162 713.594 135.128L721.221 134.836ZM717.109 145.369C718.644 145.31 719.902 145.15 720.885 144.888C721.901 144.657 722.658 144.34 723.154 143.937C723.653 143.565 723.893 143.14 723.874 142.66C723.856 142.18 723.665 141.804 723.302 141.529C722.941 141.287 722.296 141.183 721.369 141.219L712.783 141.548C712.176 141.571 711.686 141.75 711.315 142.084C710.975 142.417 710.815 142.824 710.833 143.304C710.861 144.039 711.426 144.578 712.528 144.92C713.631 145.294 715.158 145.444 717.109 145.369ZM716.267 115.86C718.698 115.766 720.788 116.007 722.539 116.58C724.291 117.154 725.637 118.031 726.579 119.211C727.552 120.359 728.072 121.812 728.139 123.571C728.205 125.298 727.798 126.786 726.917 128.037C726.068 129.286 724.793 130.264 723.09 130.97C721.387 131.643 719.32 132.027 716.89 132.12C713.085 132.265 710.164 131.673 708.127 130.342C706.123 129.009 705.071 127.048 704.972 124.458C704.905 122.699 705.296 121.211 706.146 119.994C707.027 118.743 708.318 117.765 710.021 117.059C711.723 116.354 713.805 115.954 716.267 115.86ZM716.445 120.512C715.39 120.553 714.538 120.889 713.89 121.523C713.274 122.155 712.987 123.03 713.03 124.149C713.072 125.237 713.424 126.072 714.087 126.655C714.781 127.237 715.656 127.507 716.712 127.467C717.735 127.428 718.571 127.092 719.219 126.458C719.867 125.825 720.17 124.965 720.129 123.878C720.086 122.758 719.717 121.908 719.022 121.326C718.328 120.744 717.469 120.473 716.445 120.512Z" fill="black"/>
<path d="M819.739 126.418C819.216 128.647 818.31 130.507 817.022 131.998C815.733 133.456 814.174 134.556 812.345 135.299C810.515 136.009 808.481 136.408 806.242 136.493C803.045 136.616 800.254 136.082 797.871 134.892C795.487 133.671 793.624 131.869 792.284 129.486C790.944 127.104 790.209 124.202 790.078 120.78C789.947 117.359 790.458 114.409 791.612 111.931C792.766 109.453 794.486 107.53 796.771 106.161C799.055 104.761 801.78 104 804.946 103.879C807.152 103.795 809.195 104.037 811.074 104.605C812.952 105.142 814.555 106.025 815.883 107.255C817.211 108.485 818.185 110.097 818.806 112.091L811.675 115.294C811.152 113.329 810.364 111.998 809.313 111.301C808.294 110.604 807.016 110.285 805.482 110.343C803.979 110.401 802.682 110.819 801.591 111.597C800.532 112.374 799.726 113.51 799.175 115.004C798.655 116.465 798.436 118.283 798.519 120.457C798.601 122.599 798.942 124.396 799.542 125.846C800.142 127.296 801 128.368 802.115 129.062C803.263 129.754 804.652 130.069 806.282 130.007C807.817 129.948 809.096 129.483 810.12 128.611C811.174 127.706 811.859 126.367 812.176 124.594L819.739 126.418ZM824.099 135.329L823.181 111.347L830.375 111.071L830.91 116.239C831.449 114.425 832.291 113 833.436 111.963C834.613 110.925 836.129 110.371 837.984 110.3C838.591 110.277 839.105 110.305 839.524 110.385C839.975 110.464 840.332 110.578 840.594 110.728L840.036 117.475C839.711 117.359 839.291 117.279 838.777 117.235C838.294 117.157 837.701 117.132 836.997 117.159C836.038 117.195 835.151 117.437 834.335 117.885C833.52 118.332 832.872 118.982 832.392 119.833C831.943 120.65 831.742 121.683 831.79 122.93L832.253 135.017L824.099 135.329ZM854.907 109.652C857.433 109.555 859.658 109.966 861.583 110.885C863.538 111.771 865.08 113.137 866.207 114.984C867.365 116.797 867.995 119.014 868.095 121.636C868.195 124.258 867.738 126.533 866.723 128.462C865.739 130.357 864.306 131.837 862.426 132.901C860.576 133.933 858.388 134.497 855.862 134.594C853.4 134.688 851.191 134.292 849.235 133.406C847.279 132.488 845.722 131.123 844.563 129.31C843.436 127.464 842.822 125.23 842.722 122.608C842.621 119.986 843.063 117.727 844.047 115.832C845.062 113.904 846.511 112.423 848.393 111.39C850.273 110.326 852.445 109.746 854.907 109.652ZM855.129 115.456C854.202 115.491 853.411 115.746 852.757 116.219C852.102 116.692 851.618 117.431 851.304 118.436C850.991 119.441 850.864 120.727 850.924 122.294C850.984 123.86 851.208 125.133 851.598 126.111C851.987 127.056 852.526 127.756 853.216 128.21C853.904 128.632 854.712 128.825 855.64 128.79C856.599 128.753 857.406 128.498 858.06 128.025C858.713 127.519 859.197 126.78 859.512 125.808C859.826 124.803 859.953 123.517 859.893 121.95C859.833 120.383 859.608 119.111 859.219 118.133C858.829 117.155 858.29 116.456 857.601 116.034C856.912 115.612 856.088 115.419 855.129 115.456ZM903.031 108.29L911.569 107.963L905.244 132.223L895.459 132.597L890.531 118.039L886.874 132.926L877.137 133.299L868.928 109.596L877.514 109.267L882.22 126.812L886.243 108.933L894.301 108.624L899.632 126.145L903.031 108.29ZM923.954 131.987C921.972 132.063 920.211 131.65 918.671 130.748C917.162 129.813 915.956 128.434 915.054 126.611C914.184 124.787 913.699 122.58 913.6 119.99C913.497 117.304 913.826 115.018 914.586 113.131C915.378 111.244 916.507 109.775 917.972 108.727C919.469 107.677 921.209 107.114 923.191 107.038C925.366 106.954 927.134 107.559 928.497 108.852C929.89 110.112 930.817 111.757 931.279 113.789L930.551 114.826L929.871 97.0789L938.025 96.7667L939.333 130.918L932.042 131.197L931.202 123.063L932.189 123.746C932.058 125.352 931.616 126.762 930.862 127.976C930.14 129.188 929.184 130.153 927.995 130.871C926.836 131.556 925.489 131.928 923.954 131.987ZM926.555 125.883C927.482 125.847 928.256 125.578 928.877 125.073C929.529 124.536 930.012 123.765 930.326 122.76C930.64 121.756 930.769 120.534 930.714 119.095C930.663 117.752 930.443 116.623 930.056 115.709C929.7 114.762 929.176 114.062 928.486 113.608C927.827 113.121 927.034 112.895 926.107 112.931C924.7 112.984 923.601 113.555 922.81 114.642C922.05 115.696 921.712 117.342 921.798 119.58C921.884 121.819 922.346 123.45 923.186 124.475C924.025 125.467 925.148 125.937 926.555 125.883ZM951.418 130.455L950.72 112.228C950.688 111.397 950.655 110.55 950.622 109.686C950.62 108.79 950.601 107.878 950.566 106.95C949.547 107.95 948.412 108.842 947.162 109.627C945.909 110.379 944.585 110.91 943.188 111.22L942.159 104.438C942.988 104.342 943.86 104.101 944.774 103.714C945.719 103.325 946.646 102.857 947.554 102.31C948.462 101.763 949.272 101.188 949.986 100.584C950.698 99.9483 951.235 99.3353 951.597 98.745L958.168 98.4934L959.38 130.15L951.418 130.455ZM978.376 129.903C974.059 130.069 970.729 128.819 968.385 126.155C966.074 123.489 964.815 119.47 964.609 114.098C964.404 108.726 965.351 104.623 967.452 101.789C969.586 98.953 972.81 97.4525 977.127 97.2872C981.444 97.122 984.758 98.3721 987.07 101.038C989.414 103.702 990.688 107.72 990.894 113.092C991.1 118.464 990.136 122.568 988.003 125.404C985.902 128.238 982.693 129.738 978.376 129.903ZM978.13 123.476C979.313 123.431 980.26 123.074 980.971 122.407C981.681 121.707 982.168 120.631 982.433 119.18C982.728 117.696 982.831 115.771 982.74 113.404C982.649 111.038 982.401 109.142 981.994 107.717C981.618 106.258 981.05 105.223 980.29 104.612C979.529 103.968 978.557 103.669 977.373 103.715C976.222 103.759 975.276 104.131 974.534 104.832C973.823 105.5 973.32 106.576 973.024 108.06C972.76 109.511 972.673 111.42 972.763 113.786C972.854 116.153 973.087 118.065 973.463 119.524C973.87 120.949 974.454 121.984 975.215 122.627C976.007 123.237 976.979 123.52 978.13 123.476ZM1046.44 95.114L1047.65 126.771L1040.36 127.05L1039.8 112.517L1039.67 102.771L1039.58 102.774L1032.69 127.344L1026.02 127.599L1017.27 103.628L1017.18 103.632L1017.79 113.359L1018.35 127.893L1011.01 128.174L1009.79 96.5169L1021.55 96.067L1027.15 111.992L1029.18 118.639L1029.28 118.636L1030.85 111.899L1035.17 95.5455L1046.44 95.114ZM1066.79 110.811C1066.75 109.692 1066.4 108.825 1065.73 108.21C1065.1 107.561 1064.26 107.257 1063.2 107.298C1062.14 107.338 1061.24 107.645 1060.5 108.218C1059.78 108.758 1059.31 109.705 1059.07 111.059L1052.1 109.692C1052.46 107.373 1053.57 105.489 1055.44 104.04C1057.3 102.592 1059.98 101.801 1063.46 101.667C1065.8 101.578 1067.8 101.854 1069.45 102.495C1071.14 103.103 1072.44 104.078 1073.36 105.42C1074.31 106.728 1074.82 108.374 1074.89 110.357L1075.23 119.134C1075.28 120.381 1075.86 120.983 1076.98 120.941C1077.56 120.919 1078.02 120.837 1078.36 120.695L1078.06 125.366C1077.12 125.851 1075.96 126.119 1074.59 126.172C1073.34 126.22 1072.23 126.07 1071.25 125.723C1070.28 125.344 1069.5 124.765 1068.93 123.987C1068.36 123.176 1068.04 122.147 1068 120.9L1067.98 120.612L1068.88 120.242C1068.94 121.617 1068.56 122.784 1067.77 123.743C1067 124.701 1065.98 125.429 1064.68 125.927C1063.42 126.423 1062.09 126.699 1060.68 126.752C1059.05 126.815 1057.61 126.614 1056.38 126.148C1055.15 125.683 1054.17 124.984 1053.47 124.05C1052.79 123.084 1052.42 121.881 1052.37 120.442C1052.3 118.715 1052.76 117.273 1053.74 116.114C1054.75 114.923 1056.37 114.06 1058.59 113.527L1067.58 111.309L1067.7 115.628L1063.13 116.763C1062.18 116.992 1061.47 117.307 1061 117.709C1060.57 118.078 1060.37 118.63 1060.4 119.366C1060.42 120.069 1060.7 120.587 1061.22 120.919C1061.75 121.251 1062.36 121.404 1063.07 121.377C1063.61 121.356 1064.12 121.257 1064.59 121.079C1065.1 120.899 1065.54 120.642 1065.91 120.308C1066.28 119.941 1066.57 119.498 1066.77 118.978C1066.97 118.458 1067.06 117.846 1067.04 117.142L1066.79 110.811ZM1081.77 125.465L1080.85 101.482L1088.05 101.207L1088.58 106.374C1089.12 104.56 1089.96 103.135 1091.11 102.098C1092.28 101.061 1093.8 100.506 1095.65 100.435C1096.26 100.412 1096.78 100.44 1097.19 100.52C1097.65 100.599 1098 100.714 1098.26 100.864L1097.71 107.61C1097.38 107.494 1096.96 107.414 1096.45 107.37C1095.96 107.292 1095.37 107.267 1094.67 107.294C1093.71 107.331 1092.82 107.573 1092.01 108.02C1091.19 108.468 1090.54 109.117 1090.06 109.968C1089.61 110.786 1089.41 111.818 1089.46 113.065L1089.92 125.152L1081.77 125.465ZM1127.79 99.6851L1116.75 112.405L1115.23 112.895L1108.67 120.832L1108.3 112.488L1118.73 100.032L1127.79 99.6851ZM1109.23 90.2125L1110.53 124.363L1102.38 124.676L1101.07 90.5246L1109.23 90.2125ZM1117.8 107.273L1129.24 123.647L1120.22 123.993L1112.66 112.273L1117.8 107.273ZM1142.67 123.613C1140.02 123.715 1137.7 123.307 1135.71 122.391C1133.75 121.473 1132.21 120.107 1131.09 118.293C1129.96 116.479 1129.35 114.26 1129.25 111.638C1129.15 109.016 1129.59 106.758 1130.57 104.863C1131.56 102.968 1132.97 101.488 1134.82 100.425C1136.7 99.36 1138.87 98.7806 1141.34 98.6863C1143.86 98.5896 1146.02 99.0032 1147.82 99.9271C1149.65 100.818 1151.06 102.109 1152.05 103.8C1153.04 105.459 1153.58 107.392 1153.67 109.599C1153.69 110.174 1153.69 110.75 1153.68 111.327C1153.67 111.904 1153.64 112.385 1153.6 112.772L1134.6 113.499L1134.43 109.134L1149.83 108.545L1146 110.18C1145.93 108.262 1145.52 106.804 1144.78 105.808C1144.07 104.81 1142.99 104.339 1141.55 104.394C1140.53 104.433 1139.66 104.707 1138.94 105.215C1138.26 105.721 1137.74 106.493 1137.4 107.531C1137.09 108.568 1136.96 109.886 1137.02 111.485C1137.08 113.052 1137.34 114.323 1137.79 115.298C1138.24 116.241 1138.86 116.922 1139.65 117.341C1140.43 117.727 1141.37 117.899 1142.45 117.858C1143.67 117.811 1144.62 117.534 1145.3 117.028C1146.02 116.52 1146.54 115.828 1146.86 114.951L1153.46 116.86C1153.07 118.252 1152.33 119.449 1151.25 120.451C1150.2 121.42 1148.91 122.174 1147.39 122.712C1145.91 123.249 1144.34 123.55 1142.67 123.613ZM1167.26 90.5365L1168.15 113.608C1168.19 114.759 1168.49 115.58 1169.06 116.071C1169.65 116.528 1170.44 116.738 1171.43 116.7C1172.2 116.671 1172.85 116.566 1173.39 116.385C1173.96 116.171 1174.46 115.88 1174.9 115.511L1175.95 120.514C1175.17 121.12 1174.18 121.606 1172.98 121.973C1171.78 122.339 1170.54 122.547 1169.26 122.596C1167.44 122.665 1165.84 122.47 1164.48 122.01C1163.15 121.549 1162.1 120.772 1161.32 119.681C1160.57 118.589 1160.15 117.116 1160.04 115.263L1159.19 93.103L1167.26 90.5365ZM1174.7 97.8893L1174.92 103.693L1155.5 104.437L1155.28 98.633L1174.7 97.8893ZM1182.44 94.807C1180.78 94.8707 1179.55 94.6134 1178.76 94.0353C1178 93.4239 1177.59 92.4467 1177.54 91.1037C1177.49 89.7287 1177.82 88.7233 1178.53 88.0876C1179.27 87.4187 1180.48 87.0524 1182.14 86.9888C1183.77 86.9263 1184.98 87.2002 1185.77 87.8103C1186.56 88.3885 1186.99 89.3651 1187.04 90.7401C1187.09 92.0831 1186.74 93.0891 1186 93.758C1185.26 94.3949 1184.07 94.7446 1182.44 94.807ZM1186.62 97.4329L1187.54 121.415L1179.39 121.728L1178.47 97.7451L1186.62 97.4329ZM1193.34 121.193L1192.43 97.2107L1199.72 96.9316L1200.46 105.165L1199.52 104.289C1199.77 102.55 1200.28 101.089 1201.03 99.9075C1201.82 98.7245 1202.81 97.8219 1204 97.1998C1205.23 96.5445 1206.61 96.1875 1208.14 96.1287C1209.8 96.0651 1211.25 96.3298 1212.49 96.9228C1213.77 97.5146 1214.78 98.4205 1215.53 99.6407C1216.28 100.861 1216.69 102.414 1216.76 104.301L1217.37 120.273L1209.22 120.585L1208.69 106.771C1208.63 105.109 1208.26 103.97 1207.6 103.355C1206.94 102.74 1206.11 102.451 1205.12 102.489C1204.35 102.518 1203.64 102.738 1202.98 103.147C1202.32 103.525 1201.82 104.12 1201.46 104.935C1201.11 105.749 1200.96 106.827 1201.01 108.17L1201.5 120.881L1193.34 121.193ZM1245.14 88.7559L1246.02 94.1982C1245.83 94.1416 1245.63 94.117 1245.44 94.1243C1245.25 94.0997 1245.05 94.091 1244.86 94.0984C1243.46 94.1522 1242.41 94.5444 1241.74 95.2748C1241.09 95.972 1240.79 96.8323 1240.83 97.8555L1237.91 96.9105C1237.86 95.5994 1238.05 94.3272 1238.48 93.0937C1238.92 91.8602 1239.61 90.8408 1240.58 90.0354C1241.57 89.2288 1242.83 88.7961 1244.37 88.7373C1244.47 88.7337 1244.58 88.7294 1244.71 88.7245C1244.87 88.7184 1245.01 88.7288 1245.14 88.7559ZM1237.85 114.157C1240.63 114.051 1242.78 114.561 1244.3 115.688C1245.84 116.781 1246.66 118.415 1246.74 120.59C1246.82 122.572 1246.34 124.24 1245.3 125.593C1244.26 126.945 1242.77 127.979 1240.81 128.695C1238.88 129.441 1236.58 129.866 1233.89 129.968C1229.54 130.135 1226.39 129.711 1224.43 128.697C1222.47 127.684 1221.45 126.25 1221.38 124.395C1221.33 123.052 1221.83 121.944 1222.89 121.071C1223.94 120.198 1225.73 119.681 1228.26 119.52L1228.09 120.295C1226.13 120.114 1224.66 119.594 1223.66 118.735C1222.67 117.877 1222.14 116.68 1222.08 115.145C1222.02 113.61 1222.58 112.34 1223.76 111.334C1224.94 110.328 1226.54 109.739 1228.55 109.566L1231.57 110.843L1230.81 110.872C1229.56 110.984 1228.69 111.226 1228.19 111.597C1227.69 111.968 1227.45 112.41 1227.47 112.921C1227.49 113.465 1227.73 113.872 1228.19 114.143C1228.65 114.381 1229.33 114.484 1230.22 114.449L1237.85 114.157ZM1233.74 124.69C1235.27 124.632 1236.53 124.471 1237.51 124.21C1238.53 123.979 1239.29 123.661 1239.78 123.258C1240.28 122.887 1240.52 122.461 1240.5 121.982C1240.48 121.502 1240.29 121.125 1239.93 120.851C1239.57 120.608 1238.92 120.505 1238 120.54L1229.41 120.869C1228.8 120.892 1228.31 121.071 1227.94 121.406C1227.6 121.739 1227.44 122.145 1227.46 122.625C1227.49 123.36 1228.05 123.899 1229.16 124.241C1230.26 124.615 1231.79 124.765 1233.74 124.69ZM1232.9 95.181C1235.33 95.088 1237.42 95.3282 1239.17 95.9016C1240.92 96.475 1242.27 97.3521 1243.21 98.533C1244.18 99.6806 1244.7 101.134 1244.77 102.892C1244.83 104.619 1244.43 106.108 1243.55 107.359C1242.7 108.608 1241.42 109.585 1239.72 110.291C1238.02 110.965 1235.95 111.348 1233.52 111.441C1229.71 111.587 1226.79 110.994 1224.76 109.663C1222.75 108.331 1221.7 106.37 1221.6 103.779C1221.53 102.021 1221.92 100.533 1222.77 99.3152C1223.66 98.0646 1224.95 97.0865 1226.65 96.3809C1228.35 95.6752 1230.43 95.2753 1232.9 95.181ZM1233.07 99.8336C1232.02 99.874 1231.17 100.211 1230.52 100.844C1229.9 101.476 1229.62 102.352 1229.66 103.471C1229.7 104.558 1230.05 105.393 1230.71 105.976C1231.41 106.558 1232.28 106.829 1233.34 106.788C1234.36 106.749 1235.2 106.413 1235.85 105.78C1236.5 105.147 1236.8 104.286 1236.76 103.199C1236.71 102.08 1236.35 101.229 1235.65 100.648C1234.96 100.066 1234.1 99.7944 1233.07 99.8336Z" fill="black"/>
<path d="M1338.74 104.586C1338.22 106.815 1337.32 108.675 1336.03 110.166C1334.74 111.624 1333.18 112.725 1331.35 113.467C1329.52 114.178 1327.49 114.576 1325.25 114.661C1322.05 114.784 1319.26 114.25 1316.88 113.061C1314.49 111.839 1312.63 110.037 1311.29 107.654C1309.95 105.272 1309.21 102.37 1309.08 98.9484C1308.95 95.5269 1309.46 92.5771 1310.62 90.0992C1311.77 87.6212 1313.49 85.698 1315.78 84.3296C1318.06 82.9292 1320.79 82.1684 1323.95 82.0472C1326.16 81.9627 1328.2 82.2047 1330.08 82.7733C1331.96 83.3098 1333.56 84.1931 1334.89 85.4232C1336.22 86.6533 1337.19 88.2652 1337.81 90.2589L1330.68 93.4621C1330.16 91.4967 1329.37 90.1658 1328.32 89.4695C1327.3 88.772 1326.02 88.4527 1324.49 88.5114C1322.98 88.569 1321.69 88.9869 1320.6 89.7652C1319.54 90.5423 1318.73 91.6779 1318.18 93.1721C1317.66 94.6331 1317.44 96.4508 1317.52 98.6252C1317.61 100.768 1317.95 102.564 1318.55 104.014C1319.15 105.464 1320 106.536 1321.12 107.23C1322.27 107.923 1323.66 108.238 1325.29 108.175C1326.82 108.116 1328.1 107.651 1329.12 106.779C1330.18 105.874 1330.86 104.535 1331.18 102.762L1338.74 104.586ZM1343.1 113.497L1342.19 89.515L1349.38 89.2396L1349.91 94.407C1350.45 92.593 1351.3 91.1677 1352.44 90.1312C1353.62 89.0934 1355.13 88.539 1356.99 88.468C1357.6 88.4447 1358.11 88.4731 1358.53 88.5531C1358.98 88.6319 1359.34 88.7464 1359.6 88.8964L1359.04 95.6427C1358.72 95.5271 1358.3 95.4471 1357.78 95.4027C1357.3 95.3251 1356.71 95.2998 1356 95.3267C1355.04 95.3635 1354.16 95.6056 1353.34 96.0531C1352.52 96.5006 1351.88 97.1499 1351.4 98.0009C1350.95 98.8186 1350.75 99.8511 1350.8 101.098L1351.26 113.185L1343.1 113.497ZM1373.91 87.8201C1376.44 87.7234 1378.66 88.1345 1380.59 89.0536C1382.54 89.9394 1384.08 91.3055 1385.21 93.1517C1386.37 94.9647 1387 97.1823 1387.1 99.8043C1387.2 102.426 1386.74 104.702 1385.73 106.63C1384.74 108.525 1383.31 110.005 1381.43 111.069C1379.58 112.101 1377.39 112.665 1374.87 112.762C1372.4 112.856 1370.2 112.46 1368.24 111.574C1366.28 110.657 1364.73 109.291 1363.57 107.478C1362.44 105.632 1361.83 103.398 1361.73 100.776C1361.63 98.1537 1362.07 95.8951 1363.05 94.0001C1364.07 92.0718 1365.52 90.5913 1367.4 89.5586C1369.28 88.4938 1371.45 87.9144 1373.91 87.8201ZM1374.13 93.6238C1373.21 93.6593 1372.42 93.9138 1371.76 94.3872C1371.11 94.8605 1370.62 95.5996 1370.31 96.6043C1370 97.6091 1369.87 98.8949 1369.93 100.462C1369.99 102.029 1370.21 103.301 1370.6 104.279C1370.99 105.225 1371.53 105.924 1372.22 106.378C1372.91 106.8 1373.72 106.994 1374.64 106.958C1375.6 106.921 1376.41 106.666 1377.07 106.193C1377.72 105.688 1378.2 104.948 1378.52 103.976C1378.83 102.971 1378.96 101.685 1378.9 100.118C1378.84 98.5515 1378.61 97.2792 1378.22 96.3014C1377.83 95.3235 1377.29 94.6237 1376.61 94.2017C1375.92 93.7797 1375.09 93.5871 1374.13 93.6238ZM1422.04 86.4581L1430.57 86.1312L1424.25 110.391L1414.46 110.766L1409.54 96.2074L1405.88 111.094L1396.14 111.467L1387.93 87.7637L1396.52 87.435L1401.23 104.98L1405.25 87.1008L1413.31 86.7923L1418.64 104.313L1422.04 86.4581ZM1442.96 110.155C1440.98 110.231 1439.22 109.818 1437.68 108.916C1436.17 107.981 1434.96 106.602 1434.06 104.78C1433.19 102.955 1432.7 100.748 1432.6 98.1583C1432.5 95.4723 1432.83 93.186 1433.59 91.2995C1434.38 89.4119 1435.51 87.9436 1436.98 86.8948C1438.47 85.8448 1440.21 85.2818 1442.2 85.2059C1444.37 85.1226 1446.14 85.7274 1447.5 87.0203C1448.89 88.2799 1449.82 89.9256 1450.28 91.9574L1449.56 92.9941L1448.88 75.2471L1457.03 74.9349L1458.34 109.086L1451.05 109.365L1450.21 101.231L1451.19 101.914C1451.06 103.52 1450.62 104.93 1449.87 106.144C1449.14 107.356 1448.19 108.322 1447 109.04C1445.84 109.724 1444.49 110.096 1442.96 110.155ZM1445.56 104.051C1446.49 104.016 1447.26 103.746 1447.88 103.242C1448.53 102.704 1449.02 101.933 1449.33 100.928C1449.64 99.9237 1449.77 98.7019 1449.72 97.2629C1449.67 95.9199 1449.45 94.7915 1449.06 93.8776C1448.7 92.9306 1448.18 92.2301 1447.49 91.7761C1446.83 91.289 1446.04 91.0632 1445.11 91.0987C1443.7 91.1525 1442.61 91.723 1441.82 92.81C1441.05 93.8639 1440.72 95.51 1440.8 97.7484C1440.89 99.9867 1441.35 101.618 1442.19 102.643C1443.03 103.635 1444.15 104.105 1445.56 104.051ZM1470.42 108.623L1469.72 90.3966C1469.69 89.5652 1469.66 88.7178 1469.63 87.8544C1469.63 86.9579 1469.61 86.0459 1469.57 85.1186C1468.55 86.1183 1467.42 87.0103 1466.17 87.7948C1464.91 88.5472 1463.59 89.0783 1462.19 89.388L1461.16 82.6063C1461.99 82.5106 1462.86 82.269 1463.78 81.8818C1464.72 81.4933 1465.65 81.0255 1466.56 80.4784C1467.47 79.9313 1468.28 79.3558 1468.99 78.7521C1469.7 78.1164 1470.24 77.5034 1470.6 76.9131L1477.17 76.6616L1478.38 108.318L1470.42 108.623ZM1497.38 108.071C1493.06 108.237 1489.73 106.987 1487.39 104.323C1485.08 101.657 1483.82 97.6386 1483.61 92.2666C1483.41 86.8945 1484.36 82.7912 1486.46 79.9568C1488.59 77.1211 1491.82 75.6206 1496.13 75.4554C1500.45 75.2901 1503.76 76.5402 1506.08 79.2057C1508.42 81.87 1509.69 85.8882 1509.9 91.2603C1510.1 96.6323 1509.14 100.736 1507.01 103.572C1504.91 106.406 1501.7 107.906 1497.38 108.071ZM1497.14 101.644C1498.32 101.599 1499.27 101.242 1499.98 100.575C1500.69 99.875 1501.17 98.7996 1501.44 97.3484C1501.73 95.864 1501.84 93.9387 1501.75 91.5724C1501.65 89.2062 1501.41 87.3103 1501 85.8848C1500.62 84.4261 1500.05 83.3911 1499.29 82.7797C1498.53 82.1364 1497.56 81.8374 1496.38 81.8827C1495.23 81.9267 1494.28 82.2992 1493.54 83.0001C1492.83 83.6678 1492.33 84.7438 1492.03 86.2282C1491.76 87.6794 1491.68 89.5881 1491.77 91.9544C1491.86 94.3207 1492.09 96.2331 1492.47 97.6918C1492.88 99.1173 1493.46 100.152 1494.22 100.795C1495.01 101.405 1495.98 101.688 1497.14 101.644ZM1565.45 73.2822L1566.66 104.939L1559.37 105.218L1558.81 90.6847L1558.68 80.9387L1558.58 80.9423L1551.69 105.512L1545.02 105.767L1536.28 81.7962L1536.18 81.7999L1536.79 91.5276L1537.35 106.061L1530.01 106.342L1528.8 74.6851L1540.55 74.2352L1546.16 90.1604L1548.19 96.8075L1548.28 96.8039L1549.85 90.067L1554.17 73.7137L1565.45 73.2822ZM1585.8 88.979C1585.76 87.8598 1585.4 86.9927 1584.74 86.3777C1584.1 85.7294 1583.26 85.4255 1582.21 85.4659C1581.15 85.5063 1580.25 85.813 1579.5 86.386C1578.79 86.9257 1578.31 87.8727 1578.07 89.2267L1571.1 87.8603C1571.46 85.5409 1572.58 83.6569 1574.44 82.2085C1576.31 80.76 1578.98 79.9691 1582.47 79.8356C1584.8 79.7463 1586.8 80.0221 1588.46 80.6632C1590.15 81.271 1591.45 82.2459 1592.36 83.5879C1593.31 84.8966 1593.82 86.5422 1593.9 88.5248L1594.23 97.3024C1594.28 98.5494 1594.87 99.1516 1595.99 99.1087C1596.56 99.0867 1597.02 99.005 1597.37 98.8636L1597.07 103.535C1596.13 104.019 1594.97 104.287 1593.59 104.34C1592.34 104.388 1591.23 104.238 1590.26 103.891C1589.28 103.512 1588.51 102.933 1587.94 102.155C1587.36 101.344 1587.05 100.315 1587 99.0684L1586.99 98.7806L1587.89 98.4099C1587.94 99.7849 1587.57 100.952 1586.77 101.911C1586.01 102.869 1584.98 103.597 1583.69 104.095C1582.43 104.591 1581.09 104.867 1579.68 104.921C1578.05 104.983 1576.62 104.782 1575.39 104.317C1574.15 103.851 1573.18 103.152 1572.47 102.219C1571.79 101.252 1571.43 100.049 1571.37 98.6099C1571.31 96.8832 1571.76 95.4407 1572.74 94.2823C1573.75 93.0908 1575.37 92.2283 1577.59 91.6949L1586.59 89.4772L1586.7 93.7959L1582.14 94.9315C1581.18 95.1601 1580.47 95.4754 1580.01 95.8775C1579.58 96.2464 1579.37 96.7986 1579.4 97.534C1579.43 98.2375 1579.7 98.7553 1580.23 99.0875C1580.75 99.4196 1581.37 99.5722 1582.07 99.5453C1582.62 99.5245 1583.12 99.425 1583.6 99.2467C1584.1 99.0673 1584.54 98.8103 1584.91 98.4758C1585.28 98.1094 1585.57 97.6661 1585.77 97.1459C1585.98 96.6257 1586.07 96.0139 1586.04 95.3104L1585.8 88.979ZM1600.77 103.633L1599.86 79.6504L1607.05 79.3749L1607.59 84.5423C1608.12 82.7283 1608.97 81.3031 1610.11 80.2665C1611.29 79.2287 1612.8 78.6743 1614.66 78.6033C1615.27 78.58 1615.78 78.6084 1616.2 78.6884C1616.65 78.7672 1617.01 78.8817 1617.27 79.0318L1616.71 85.7781C1616.39 85.6624 1615.97 85.5824 1615.45 85.538C1614.97 85.4604 1614.38 85.4351 1613.67 85.4621C1612.71 85.4988 1611.83 85.7409 1611.01 86.1884C1610.2 86.636 1609.55 87.2852 1609.07 88.1362C1608.62 88.954 1608.42 89.9864 1608.47 91.2335L1608.93 103.321L1600.77 103.633ZM1646.8 77.8532L1635.76 90.5729L1634.24 91.0634L1627.67 99.0003L1627.31 90.6563L1637.73 78.2003L1646.8 77.8532ZM1628.23 68.3806L1629.54 102.532L1621.38 102.844L1620.08 68.6928L1628.23 68.3806ZM1636.81 85.4409L1648.24 101.815L1639.23 102.161L1631.67 90.4412L1636.81 85.4409ZM1661.68 101.781C1659.03 101.883 1656.7 101.476 1654.72 100.559C1652.76 99.6412 1651.22 98.2751 1650.09 96.4609C1648.96 94.6467 1648.35 92.4285 1648.25 89.8064C1648.15 87.1843 1648.59 84.9258 1649.58 83.0307C1650.56 81.1357 1651.98 79.6564 1653.83 78.5929C1655.71 77.5282 1657.88 76.9487 1660.34 76.8544C1662.87 76.7577 1665.03 77.1713 1666.82 78.0953C1668.65 78.986 1670.06 80.277 1671.06 81.9683C1672.05 83.6275 1672.59 85.5603 1672.67 87.7667C1672.69 88.3423 1672.7 88.9185 1672.69 89.4953C1672.68 90.0721 1672.65 90.5536 1672.6 90.9397L1653.61 91.6669L1653.44 87.3021L1668.84 86.7127L1665.01 88.3483C1664.93 86.4297 1664.53 84.9723 1663.78 83.9759C1663.07 82.9784 1662 82.5072 1660.56 82.5623C1659.54 82.6014 1658.67 82.8749 1657.95 83.3827C1657.26 83.8893 1656.75 84.6616 1656.4 85.6995C1656.09 86.7362 1655.97 88.054 1656.03 89.6528C1656.09 91.2197 1656.34 92.4908 1656.8 93.4661C1657.25 94.4095 1657.87 95.0904 1658.65 95.5087C1659.44 95.895 1660.37 96.0673 1661.46 96.0257C1662.67 95.9792 1663.62 95.7026 1664.31 95.196C1665.03 94.6882 1665.54 93.9959 1665.86 93.1191L1672.47 95.0278C1672.07 96.4199 1671.33 97.617 1670.25 98.6192C1669.2 99.5881 1667.92 100.342 1666.4 100.88C1664.92 101.417 1663.34 101.718 1661.68 101.781ZM1686.27 68.7046L1687.15 91.7757C1687.19 92.9269 1687.5 93.7479 1688.06 94.2387C1688.66 94.6963 1689.45 94.9061 1690.44 94.8682C1691.21 94.8388 1691.86 94.7338 1692.4 94.5531C1692.96 94.3392 1693.47 94.0478 1693.9 93.6789L1694.96 98.6821C1694.18 99.2883 1693.19 99.7746 1691.99 100.141C1690.78 100.507 1689.54 100.715 1688.26 100.764C1686.44 100.834 1684.85 100.638 1683.49 100.178C1682.15 99.7167 1681.1 98.9404 1680.32 97.8494C1679.58 96.7572 1679.15 95.2843 1679.05 93.4309L1678.2 71.2711L1686.27 68.7046ZM1693.71 76.0574L1693.93 81.8612L1674.5 82.6049L1674.28 76.8011L1693.71 76.0574ZM1701.44 72.9752C1699.78 73.0388 1698.55 72.7816 1697.76 72.2034C1697 71.592 1696.6 70.6148 1696.55 69.2718C1696.49 67.8968 1696.82 66.8915 1697.54 66.2558C1698.28 65.5869 1699.48 65.2206 1701.14 65.1569C1702.77 65.0945 1703.99 65.3683 1704.78 65.9785C1705.57 66.5567 1705.99 67.5332 1706.04 68.9082C1706.09 70.2513 1705.75 71.2572 1705.01 71.9261C1704.26 72.5631 1703.07 72.9128 1701.44 72.9752ZM1705.63 75.6011L1706.54 99.5835L1698.39 99.8957L1697.47 75.9132L1705.63 75.6011ZM1712.35 99.3613L1711.43 75.3788L1718.72 75.0997L1719.47 83.3332L1718.52 82.4567C1718.78 80.7177 1719.28 79.2574 1720.04 78.0756C1720.82 76.8926 1721.81 75.9901 1723.01 75.368C1724.23 74.7127 1725.61 74.3557 1727.15 74.2969C1728.81 74.2332 1730.26 74.4979 1731.5 75.0909C1732.77 75.6827 1733.78 76.5887 1734.53 77.8088C1735.28 79.029 1735.7 80.5824 1735.77 82.469L1736.38 98.4413L1728.23 98.7535L1727.7 84.9396C1727.63 83.2768 1727.27 82.1379 1726.61 81.5228C1725.94 80.9078 1725.11 80.6192 1724.12 80.6572C1723.35 80.6866 1722.64 80.906 1721.99 81.3154C1721.33 81.6929 1720.82 82.2886 1720.47 83.1027C1720.12 83.9168 1719.97 84.9954 1720.02 86.3384L1720.5 99.0491L1712.35 99.3613ZM1764.14 66.9241L1765.02 72.3664C1764.83 72.3098 1764.64 72.2851 1764.45 72.2925C1764.25 72.2678 1764.06 72.2592 1763.87 72.2665C1762.46 72.3204 1761.42 72.7125 1760.74 73.443C1760.1 74.1402 1759.79 75.0004 1759.83 76.0237L1756.91 75.0786C1756.86 73.7676 1757.06 72.4953 1757.49 71.2618C1757.92 70.0284 1758.62 69.0089 1759.58 68.2035C1760.58 67.3969 1761.84 66.9642 1763.37 66.9055C1763.47 66.9018 1763.58 66.8975 1763.71 66.8926C1763.87 66.8865 1764.01 66.897 1764.14 66.9241ZM1756.85 92.3255C1759.64 92.219 1761.79 92.7292 1763.3 93.856C1764.85 94.9496 1765.66 96.5836 1765.75 98.7581C1765.82 100.741 1765.34 102.408 1764.31 103.761C1763.27 105.114 1761.77 106.148 1759.81 106.863C1757.89 107.609 1755.58 108.034 1752.9 108.137C1748.55 108.303 1745.39 107.879 1743.43 106.866C1741.47 105.852 1740.46 104.418 1740.39 102.563C1740.33 101.22 1740.84 100.112 1741.89 99.239C1742.95 98.366 1744.74 97.8492 1747.26 97.6885L1747.1 98.4633C1745.14 98.2821 1743.66 97.7623 1742.67 96.9036C1741.67 96.045 1741.15 94.8483 1741.09 93.3134C1741.03 91.7785 1741.59 90.5082 1742.77 89.5024C1743.95 88.4965 1745.54 87.9071 1747.55 87.7341L1750.58 89.0112L1749.81 89.0406C1748.57 89.1523 1747.7 89.3938 1747.2 89.7651C1746.7 90.1364 1746.46 90.5779 1746.48 91.0895C1746.5 91.6331 1746.74 92.0403 1747.2 92.3109C1747.66 92.5496 1748.33 92.6518 1749.23 92.6175L1756.85 92.3255ZM1752.74 102.859C1754.28 102.8 1755.54 102.64 1756.52 102.378C1757.53 102.147 1758.29 101.83 1758.79 101.426C1759.29 101.055 1759.53 100.629 1759.51 100.15C1759.49 99.6701 1759.3 99.2931 1758.94 99.0188C1758.57 98.7765 1757.93 98.673 1757 98.7085L1748.42 99.0372C1747.81 99.0605 1747.32 99.2394 1746.95 99.5738C1746.61 99.907 1746.45 100.313 1746.47 100.793C1746.49 101.529 1747.06 102.067 1748.16 102.409C1749.26 102.784 1750.79 102.933 1752.74 102.859ZM1751.9 73.3492C1754.33 73.2561 1756.42 73.4963 1758.17 74.0697C1759.92 74.6432 1761.27 75.5203 1762.21 76.7011C1763.19 77.8487 1763.7 79.3019 1763.77 81.0606C1763.84 82.7874 1763.43 84.276 1762.55 85.5267C1761.7 86.776 1760.43 87.7536 1758.72 88.4592C1757.02 89.1329 1754.95 89.5162 1752.52 89.6092C1748.72 89.7549 1745.8 89.1622 1743.76 87.8312C1741.76 86.4989 1740.7 84.5377 1740.61 81.9476C1740.54 80.1888 1740.93 78.7008 1741.78 77.4834C1742.66 76.2328 1743.95 75.2546 1745.65 74.549C1747.36 73.8434 1749.44 73.4434 1751.9 73.3492ZM1752.08 78.0017C1751.02 78.0421 1750.17 78.379 1749.52 79.0122C1748.91 79.6443 1748.62 80.5199 1748.66 81.6391C1748.71 82.7263 1749.06 83.5614 1749.72 84.1445C1750.41 84.7263 1751.29 84.997 1752.35 84.9566C1753.37 84.9175 1754.2 84.5813 1754.85 83.948C1755.5 83.3147 1755.8 82.4545 1755.76 81.3673C1755.72 80.2481 1755.35 79.3976 1754.66 78.8158C1753.96 78.2339 1753.1 77.9626 1752.08 78.0017Z" fill="black"/>
</svg>
