<svg width="50" height="50" viewBox="0 0 50 50" fill="none" xmlns="http://www.w3.org/2000/svg">
<path d="M49.538 24.7676C49.538 31.2654 46.9567 37.4971 42.3621 42.0917C37.7674 46.6863 31.5358 49.2676 25.038 49.2676C18.5402 49.2676 12.3085 46.6863 7.71385 42.0917C3.11921 37.4971 0.537964 31.2654 0.537964 24.7676C0.537964 18.2698 3.11921 12.0381 7.71385 7.44346C12.3085 2.84882 18.5402 0.267578 25.038 0.267578C31.5358 0.267578 37.7674 2.84882 42.3621 7.44346C46.9567 12.0381 49.538 18.2698 49.538 24.7676V24.7676ZM26.5692 14.0488C26.5692 13.6427 26.4079 13.2532 26.1207 12.9661C25.8336 12.6789 25.4441 12.5176 25.038 12.5176C24.6319 12.5176 24.2424 12.6789 23.9552 12.9661C23.668 13.2532 23.5067 13.6427 23.5067 14.0488L23.5067 31.7899L16.9346 25.2147C16.6471 24.9272 16.2571 24.7656 15.8505 24.7656C15.4438 24.7656 15.0539 24.9272 14.7663 25.2147C14.4788 25.5022 14.3173 25.8922 14.3173 26.2988C14.3173 26.7055 14.4788 27.0954 14.7663 27.383L23.9538 36.5705C24.0961 36.7131 24.2651 36.8262 24.4511 36.9034C24.6371 36.9806 24.8366 37.0203 25.038 37.0203C25.2394 37.0203 25.4388 36.9806 25.6248 36.9034C25.8109 36.8262 25.9798 36.7131 26.1221 36.5705L35.3096 27.383C35.5971 27.0954 35.7586 26.7055 35.7586 26.2988C35.7586 25.8922 35.5971 25.5022 35.3096 25.2147C35.0221 24.9272 34.6321 24.7656 34.2255 24.7656C33.8188 24.7656 33.4289 24.9272 33.1413 25.2147L26.5692 31.7899L26.5692 14.0488Z" fill="#3CC6F2"/>
</svg>
