<?xml version="1.0" encoding="utf-8"?>
<!-- Generator: Adobe Illustrator 25.2.0, SVG Export Plug-In . SVG Version: 6.00 Build 0)  -->
<svg version="1.1" id="Layer_1" xmlns="http://www.w3.org/2000/svg" xmlns:xlink="http://www.w3.org/1999/xlink" x="0px" y="0px"
	 viewBox="0 0 183 55" style="enable-background:new 0 0 183 55;" xml:space="preserve">
<style type="text/css">
	.st0{fill:#23BDEF;}
	.st1{fill:#ED2424;}
	.st2{fill:#F49F20;}
	.st3{fill:#FFFFFF;}
	.st4{font-family:'Kanit-Medium';}
	.st5{font-size:11.7557px;}
</style>
<g>
	<g id="logo">
		<path class="st0" d="M44.037,29.423c0,4.02-2.86,7.372-6.656,8.134c-0.53,0.107-1.079,0.162-1.64,0.162
			c-1.874,0-3.602-0.621-4.991-1.669c-2.008-1.514-3.305-3.919-3.305-6.627c0-3.07,1.667-5.751,4.146-7.185
			c-0.786-1.651-1.877-3.12-3.195-4.343c-0.342-0.317-0.7-0.618-1.071-0.901c-1.313-1-1.692-2.81-0.867-4.24l0,0
			c0.983-1.702,3.236-2.157,4.801-0.968c3.226,2.451,5.733,5.826,7.101,9.762C41.658,22.645,44.037,25.756,44.037,29.423z"/>
		<path class="st1" d="M8.939,6.856c3.415-2.121,7.772-1.459,10.421,1.364c0.37,0.394,0.707,0.831,1.003,1.308
			c0.989,1.592,1.372,3.388,1.214,5.121c-0.227,2.504-1.586,4.875-3.886,6.303c-2.608,1.619-5.765,1.617-8.291,0.267
			c-0.988,1.538-1.661,3.241-2.005,5.006c-0.09,0.466-0.158,0.936-0.202,1.408c-0.152,1.623-1.454,2.896-3.084,2.948l-0.135,0.004
			c-1.923,0.061-3.459-1.578-3.285-3.495c0.369-4.06,1.916-7.999,4.555-11.258C4.436,12.452,5.824,8.79,8.939,6.856z"/>
		<path class="st2" d="M5.993,48.306C2.499,46.318,1,42.174,2.216,38.498c0.169-0.513,0.393-1.018,0.67-1.506
			c0.927-1.629,2.322-2.823,3.92-3.512c2.309-0.996,5.041-0.934,7.394,0.405c2.668,1.518,4.173,4.293,4.194,7.157
			c1.824,0.134,3.64-0.088,5.355-0.629c0.445-0.141,0.883-0.303,1.313-0.486c1.518-0.647,3.28-0.081,4.114,1.343l0,0
			c0.993,1.696,0.274,3.879-1.533,4.651c-3.726,1.591-7.899,2.101-11.996,1.343C13.06,49.591,9.179,50.12,5.993,48.306z"/>
	</g>
	<g>
		<g>
			<path class="st3" d="M47.642,31.592c0-7.607,5.071-11.184,12.678-11.184c3.215,0,5.614,0.407,7.924,1.494v5.977
				c-1.721-0.815-3.849-1.268-6.067-1.268c-3.849,0-5.841,1.268-5.841,4.981c0,3.532,1.811,4.981,5.841,4.981
				c2.173,0,4.256-0.543,6.113-1.494v6.248c-2.309,1.042-4.89,1.449-8.014,1.449C52.487,42.776,47.642,39.108,47.642,31.592z"/>
			<path class="st3" d="M71.503,20.861h8.195l0.226,1.721c1.766-1.041,4.664-1.992,7.471-2.173v6.339
				c-2.354,0.181-5.66,0.815-7.38,1.63v13.946h-8.512V20.861z"/>
			<path class="st3" d="M86.761,31.592c0-7.244,4.03-11.184,12.542-11.184c8.557,0,12.632,3.939,12.632,11.184
				c0,7.29-4.03,11.184-12.632,11.184C90.746,42.776,86.761,38.882,86.761,31.592z M103.242,31.592c0-3.441-1.177-4.981-3.939-4.981
				c-2.717,0-3.849,1.54-3.849,4.981c0,3.486,1.132,4.981,3.849,4.981C102.065,36.573,103.242,35.079,103.242,31.592z"/>
			<path class="st3" d="M112.206,20.861h8.241l2.536,10.64l2.49-7.561v-3.079h6.248l2.988,10.64l2.445-10.64h8.241l-5.66,21.462
				h-7.607l-3.26-9.735l-3.26,9.735h-7.742L112.206,20.861z"/>
			<path class="st3" d="M145.666,32.271c0-7.833,4.709-11.863,10.278-11.863c1.992,0,4.075,0.453,5.524,1.223v-6.746h8.512v27.438
				h-7.38l-0.408-1.675c-1.721,1.358-3.713,2.128-6.52,2.128C149.605,42.776,145.666,39.969,145.666,32.271z M161.468,35.305v-7.607
				c-0.86-0.77-1.992-1.132-3.351-1.132c-2.264,0-3.758,2.083-3.758,5.75c0,3.622,1.132,4.301,3.758,4.301
				C159.43,36.618,160.562,36.165,161.468,35.305z"/>
		</g>
		<text transform="matrix(1 0 0 1 170.6865 22.2981)" class="st3 st4 st5">10</text>
	</g>
</g>
</svg>
