<svg id="Layer_1" data-name="Layer 1" xmlns="http://www.w3.org/2000/svg" viewBox="0 0 912.81 772.15"><defs><style>.cls-1,.cls-6{fill:#fbb03c;}.cls-11,.cls-2,.cls-3,.cls-5,.cls-7{fill:#fff;}.cls-2{opacity:0.7;}.cls-3{opacity:0.5;}.cls-4{fill:none;stroke:#fff;}.cls-4,.cls-6,.cls-7,.cls-8{stroke-linecap:round;stroke-linejoin:round;}.cls-6,.cls-7,.cls-8{stroke:#263238;}.cls-10,.cls-8{fill:#263238;}.cls-9{fill:#3fc6f1;}.cls-11{opacity:0.3;}</style></defs><path class="cls-1" d="M1622.1,781.17c.81-89.3-60-146.23-58.32-214.08,1.68-69.64,27-118-1.58-298.51S1393.78-2.24,1265.79,36.45s-99.37,141.86-220.63,139.28S854.76,157,782.34,376.23C714.83,580.59,863,758,869.19,781.17Z" transform="translate(-764.75 -27.61)"/><path class="cls-2" d="M1622.1,781.17c.81-89.3-60-146.23-58.32-214.08,1.68-69.64,27-118-1.58-298.51S1393.78-2.24,1265.79,36.45s-99.37,141.86-220.63,139.28S854.76,157,782.34,376.23C714.83,580.59,863,758,869.19,781.17Z" transform="translate(-764.75 -27.61)"/><polygon class="cls-1" points="834.34 762.12 606.11 30.75 557.49 261.7 434.28 164.38 377.52 312.18 337.8 242.85 225.97 700.86 202.09 762.12 834.34 762.12"/><polygon class="cls-3" points="834.34 762.12 606.11 30.75 557.49 261.7 434.28 164.38 377.52 312.18 337.8 242.85 225.97 700.86 202.09 762.12 834.34 762.12"/><line class="cls-4" x1="623.67" y1="347.86" x2="628.54" y2="354.6"/><line class="cls-4" x1="563.74" y1="265.07" x2="616.81" y2="338.4"/><line class="cls-4" x1="370.24" y1="333.44" x2="333.35" y2="406.7"/><polygon class="cls-5" points="636.44 198.09 629.68 121 635.2 124.31 630.94 109.64 606.11 30.75 585.57 123.57 599.3 97.14 604.73 123.19 612.05 111.18 636.44 198.09"/><polygon class="cls-5" points="469.13 222.55 470.25 192.79 434.54 163.5 416.12 211.69 433.25 197.75 447.78 225.38 445.71 203.48 469.13 222.55"/><rect class="cls-6" x="221.48" y="380.75" width="551.34" height="379.92"/><rect class="cls-7" x="480.13" y="576.2" width="76.92" height="184.47"/><rect class="cls-8" x="488.36" y="589.38" width="60.45" height="171.29"/><rect class="cls-7" x="587.25" y="551.25" width="16.35" height="209.42"/><rect class="cls-7" x="584.4" y="687.15" width="22.06" height="73.53"/><path class="cls-8" d="M1554.45,413.28H1042.13a.87.87,0,0,1-.34-1.66l143.06-61.95a20.72,20.72,0,0,1,8.22-1.7H1390.5a20.59,20.59,0,0,1,7.64,1.46l156.63,62.18A.87.87,0,0,1,1554.45,413.28Z" transform="translate(-764.75 -27.61)"/><polygon class="cls-8" points="622.38 567.42 328.11 567.42 350.11 503.73 583.4 503.73 622.38 567.42"/><rect class="cls-7" x="202.09" y="380.75" width="252.04" height="379.92"/><rect class="cls-6" x="202.09" y="694.79" width="252.04" height="65.88"/><path class="cls-8" d="M1089.15,345.11,951.58,407.86a.87.87,0,0,0,.37,1.67h281.82a.87.87,0,0,0,.36-1.67l-137.57-62.75A9,9,0,0,0,1089.15,345.11Z" transform="translate(-764.75 -27.61)"/><circle class="cls-5" cx="518.59" cy="617.38" r="6.59"/><rect class="cls-7" x="634.46" y="592.67" width="121.88" height="102.12"/><rect class="cls-8" x="680.58" y="601.96" width="29.65" height="22.01"/><rect class="cls-8" x="680.58" y="633.85" width="29.65" height="51.66"/><rect class="cls-8" x="645.54" y="601.96" width="26.8" height="22.01"/><rect class="cls-8" x="718.46" y="601.96" width="26.8" height="22.01"/><rect class="cls-8" x="718.46" y="633.85" width="26.8" height="51.66"/><rect class="cls-8" x="645.54" y="633.85" width="26.8" height="51.66"/><rect class="cls-7" x="250.7" y="592.67" width="154.82" height="102.12"/><rect class="cls-8" x="296.82" y="601.96" width="29.65" height="22.01"/><rect class="cls-8" x="296.82" y="633.85" width="29.65" height="51.66"/><rect class="cls-8" x="261.78" y="601.96" width="26.8" height="22.01"/><rect class="cls-8" x="334.7" y="601.96" width="26.8" height="22.01"/><rect class="cls-8" x="334.7" y="633.85" width="26.8" height="51.66"/><rect class="cls-8" x="369.29" y="601.96" width="26.8" height="22.01"/><rect class="cls-8" x="369.29" y="633.85" width="26.8" height="51.66"/><rect class="cls-8" x="261.78" y="633.85" width="26.8" height="51.66"/><rect class="cls-7" x="250.7" y="396.67" width="154.82" height="102.12"/><rect class="cls-8" x="296.82" y="405.96" width="29.65" height="22.01"/><rect class="cls-8" x="296.82" y="437.85" width="29.65" height="51.66"/><rect class="cls-8" x="261.78" y="405.96" width="26.8" height="22.01"/><rect class="cls-8" x="334.7" y="405.96" width="26.8" height="22.01"/><rect class="cls-8" x="334.7" y="437.85" width="26.8" height="51.66"/><rect class="cls-8" x="369.29" y="405.96" width="26.8" height="22.01"/><rect class="cls-8" x="369.29" y="437.85" width="26.8" height="51.66"/><rect class="cls-8" x="261.78" y="437.85" width="26.8" height="51.66"/><rect class="cls-7" x="634.46" y="396.67" width="121.88" height="102.12"/><rect class="cls-8" x="680.58" y="405.96" width="29.65" height="22.01"/><rect class="cls-8" x="680.58" y="437.85" width="29.65" height="51.66"/><rect class="cls-8" x="645.54" y="405.96" width="26.8" height="22.01"/><rect class="cls-8" x="718.46" y="405.96" width="26.8" height="22.01"/><rect class="cls-8" x="718.46" y="437.85" width="26.8" height="51.66"/><rect class="cls-8" x="645.54" y="437.85" width="26.8" height="51.66"/><rect class="cls-7" x="477.99" y="396.67" width="85.65" height="102.12"/><rect class="cls-8" x="524.11" y="405.96" width="29.65" height="22.01"/><rect class="cls-8" x="524.11" y="437.85" width="29.65" height="51.66"/><rect class="cls-8" x="489.07" y="405.96" width="26.8" height="22.01"/><rect class="cls-8" x="489.07" y="437.85" width="26.8" height="51.66"/><rect class="cls-6" x="666.58" y="694.79" width="57.65" height="16.47"/><rect class="cls-6" x="302.03" y="694.79" width="57.65" height="16.47"/><path class="cls-9" d="M957.78,726.84s31,3.07,46.73,22.29c0,0,16.6-22.27,46.42-21.81a60.27,60.27,0,1,0-93.16-.43Z" transform="translate(-764.75 -27.61)"/><path class="cls-3" d="M957.78,726.84s31,3.07,46.73,22.29c0,0,16.6-22.27,46.42-21.81a60.27,60.27,0,1,0-93.16-.43Z" transform="translate(-764.75 -27.61)"/><polygon class="cls-10" points="238.73 605.23 237.69 760.67 242.92 760.67 238.73 605.23"/><path class="cls-10" d="M1005.05,743.27s10.47-18.84,29.31-24.6c0,0-19.89,4.71-29.83,20.94Z" transform="translate(-764.75 -27.61)"/><path class="cls-10" d="M1005.05,689.89s10.47-18.85,29.31-24.6c0,0-19.89,4.71-29.83,20.93Z" transform="translate(-764.75 -27.61)"/><path class="cls-10" d="M1005.05,716.58s10.47-18.84,29.31-24.6c0,0-19.89,4.71-29.83,20.93Z" transform="translate(-764.75 -27.61)"/><path class="cls-10" d="M1003.5,703.49s-10.1-18.84-28.28-24.6c0,0,19.19,4.71,28.78,20.94Z" transform="translate(-764.75 -27.61)"/><path class="cls-10" d="M1003.5,729.66s-10.1-18.84-28.28-24.6c0,0,19.19,4.71,28.78,20.94Z" transform="translate(-764.75 -27.61)"/><path class="cls-9" d="M1532,726.84s31,3.07,46.72,22.29c0,0,16.61-22.27,46.43-21.81a60.28,60.28,0,1,0-93.16-.43Z" transform="translate(-764.75 -27.61)"/><path class="cls-3" d="M1532,726.84s31,3.07,46.72,22.29c0,0,16.61-22.27,46.43-21.81a60.28,60.28,0,1,0-93.16-.43Z" transform="translate(-764.75 -27.61)"/><polygon class="cls-10" points="812.92 605.23 811.87 760.67 817.11 760.67 812.92 605.23"/><path class="cls-10" d="M1579.24,743.27s10.46-18.84,29.31-24.6c0,0-19.89,4.71-29.84,20.94Z" transform="translate(-764.75 -27.61)"/><path class="cls-10" d="M1579.24,689.89s10.46-18.85,29.31-24.6c0,0-19.89,4.71-29.84,20.93Z" transform="translate(-764.75 -27.61)"/><path class="cls-10" d="M1579.24,716.58s10.46-18.84,29.31-24.6c0,0-19.89,4.71-29.84,20.93Z" transform="translate(-764.75 -27.61)"/><path class="cls-10" d="M1577.69,703.49s-10.11-18.84-28.29-24.6c0,0,19.19,4.71,28.79,20.94Z" transform="translate(-764.75 -27.61)"/><path class="cls-10" d="M1577.69,729.66s-10.11-18.84-28.29-24.6c0,0,19.19,4.71,28.79,20.94Z" transform="translate(-764.75 -27.61)"/><path class="cls-9" d="M791.21,681s54.15,5.36,81.6,38.93c0,0,29-38.89,81.09-38.09a105.26,105.26,0,1,0-162.71-.75Z" transform="translate(-764.75 -27.61)"/><path class="cls-11" d="M791.21,681s54.15,5.36,81.6,38.93c0,0,29-38.89,81.09-38.09a105.26,105.26,0,1,0-162.71-.75Z" transform="translate(-764.75 -27.61)"/><polygon class="cls-10" points="106.27 489.19 104.45 760.67 113.59 760.67 106.27 489.19"/><path class="cls-10" d="M873.76,709.67s18.28-32.91,51.19-43c0,0-34.73,8.23-52.1,36.56Z" transform="translate(-764.75 -27.61)"/><path class="cls-10" d="M873.76,616.44s18.28-32.91,51.19-43c0,0-34.73,8.23-52.1,36.57Z" transform="translate(-764.75 -27.61)"/><path class="cls-10" d="M873.76,663.05s18.28-32.9,51.19-43c0,0-34.73,8.23-52.1,36.56Z" transform="translate(-764.75 -27.61)"/><path class="cls-10" d="M871.05,640.2s-17.64-32.91-49.39-43c0,0,33.52,8.23,50.28,36.56Z" transform="translate(-764.75 -27.61)"/><path class="cls-10" d="M871.05,685.9s-17.64-32.9-49.39-43c0,0,33.52,8.23,50.28,36.57Z" transform="translate(-764.75 -27.61)"/><rect class="cls-8" x="15.06" y="753.56" width="897.24" height="18.09"/><path class="cls-5" d="M1103.33,254c-7.58-4.13-11-.68-13.79-4.13s7.59-12.41-13.1-21.37c0,0-1.37-19.3-29.64-20s-20.68,19.3-28.26,24.12-9.65-2.75-17.24,2.07-4.13,14.48-10.34,15.86-14.47-6.21-22.06-1.38-7.58,9-11,9-10.34-2.76-14.47,0-9,6.21-9,6.21h174.4S1110.91,258.09,1103.33,254Z" transform="translate(-764.75 -27.61)"/><path class="cls-5" d="M1356.06,97.22c-7.93-4.32-11.54-.72-14.42-4.32s7.93-13-13.7-22.36c0,0-1.45-20.19-31-20.91s-21.64,20.19-29.57,25.24-10.1-2.89-18,2.16-4.33,15.15-10.82,16.59-15.14-6.49-23.08-1.44-7.93,9.37-11.53,9.37-10.82-2.88-15.15,0-9.37,6.49-9.37,6.49h182.45S1364,101.55,1356.06,97.22Z" transform="translate(-764.75 -27.61)"/><path class="cls-5" d="M1030.36,227.05c-5.52-3-8-.5-10-3s5.52-9-9.54-15.57c0,0-1-14.06-21.6-14.56S974.12,208,968.59,211.48s-7-2-12.55,1.51-3,10.55-7.54,11.55-10.54-4.52-16.07-1-5.52,6.53-8,6.53-7.53-2-10.55,0-6.53,4.52-6.53,4.52h127.06S1035.89,230.07,1030.36,227.05Z" transform="translate(-764.75 -27.61)"/></svg>