<svg width="76" height="21" viewBox="0 0 76 21" fill="none" xmlns="http://www.w3.org/2000/svg">
<path fill-rule="evenodd" clip-rule="evenodd" d="M0 10.6582C0 15.4333 3.61083 19.4039 8.33333 20.2091V13.2722H5.83333V10.6046H8.33333V8.46995C8.33333 6.06881 9.94417 4.73537 12.2225 4.73537C12.9442 4.73537 13.7225 4.84182 14.4442 4.94827V7.40304H13.1667C11.9442 7.40304 11.6667 7.98972 11.6667 8.73727V10.6046H14.3333L13.8892 13.2722H11.6667V20.2091C16.3892 19.4039 20 15.4341 20 10.6582C20 5.34606 15.5 1 10 1C4.5 1 0 5.34606 0 10.6582Z" fill="white"/>
<path d="M66 1C60.4771 1 56 5.30004 56 10.6046C56 15.9091 60.4771 20.2091 66 20.2091C71.5229 20.2091 76 15.9091 76 10.6046C76 5.30004 71.5229 1 66 1ZM63.5521 14.5854H61.5271V8.32648H63.5521V14.5854ZM62.5271 7.55811C61.8875 7.55811 61.474 7.12291 61.474 6.58465C61.474 6.03539 61.9 5.61319 62.5531 5.61319C63.2062 5.61319 63.6062 6.03539 63.6187 6.58465C63.6187 7.12291 63.2062 7.55811 62.5271 7.55811ZM70.9479 14.5854H68.9229V11.1168C68.9229 10.3094 68.6292 9.76116 67.8969 9.76116C67.3375 9.76116 67.0052 10.1323 66.8583 10.4895C66.8042 10.6166 66.7906 10.7967 66.7906 10.9757V14.5844H64.7646V10.3224C64.7646 9.54106 64.7385 8.88774 64.7115 8.32548H66.4708L66.5635 9.19489H66.6042C66.8708 8.7867 67.524 8.18441 68.6167 8.18441C69.949 8.18441 70.9479 9.04182 70.9479 10.8847V14.5854V14.5854Z" fill="white"/>
<circle cx="38" cy="10" r="10" fill="white"/>
<path d="M37.992 8.06006C37.3105 8.06006 36.6569 8.3201 36.1749 8.78297C35.693 9.24585 35.4222 9.87364 35.4222 10.5282C35.4222 11.1828 35.693 11.8106 36.1749 12.2735C36.6569 12.7364 37.3105 12.9964 37.992 12.9964C38.6736 12.9964 39.3272 12.7364 39.8092 12.2735C40.2911 11.8106 40.5618 11.1828 40.5618 10.5282C40.5618 9.87364 40.2911 9.24585 39.8092 8.78297C39.3272 8.3201 38.6736 8.06006 37.992 8.06006V8.06006ZM37.992 12.1312C37.5493 12.1312 37.1246 11.9622 36.8115 11.6615C36.4985 11.3608 36.3226 10.953 36.3226 10.5277C36.3226 10.1024 36.4985 9.69459 36.8115 9.39389C37.1246 9.09318 37.5493 8.92424 37.992 8.92424C38.4348 8.92424 38.8595 9.09318 39.1725 9.39389C39.4856 9.69459 39.6615 10.1024 39.6615 10.5277C39.6615 10.953 39.4856 11.3608 39.1725 11.6615C38.8595 11.9622 38.4348 12.1312 37.992 12.1312V12.1312Z" fill="#011226"/>
<path d="M40.6636 8.54438C40.9944 8.54438 41.2627 8.28676 41.2627 7.96897C41.2627 7.65117 40.9944 7.39355 40.6636 7.39355C40.3327 7.39355 40.0645 7.65117 40.0645 7.96897C40.0645 8.28676 40.3327 8.54438 40.6636 8.54438Z" fill="#011226"/>
<path d="M42.7348 7.38398C42.6062 7.06488 42.4096 6.7751 42.1576 6.53318C41.9056 6.29126 41.6038 6.10253 41.2716 5.97908C40.8827 5.83889 40.4719 5.76309 40.0567 5.7549C39.5215 5.73248 39.352 5.72607 37.9948 5.72607C36.6377 5.72607 36.4637 5.72607 35.933 5.7549C35.5181 5.76267 35.1076 5.83849 34.7192 5.97908C34.3868 6.10239 34.085 6.29106 33.833 6.533C33.581 6.77494 33.3844 7.0648 33.2559 7.38398C33.1099 7.75742 33.0312 8.152 33.0231 8.55082C32.9992 9.06431 32.9919 9.22711 32.9919 10.5311C32.9919 11.8346 32.9919 12.0006 33.0231 12.5114C33.0314 12.9107 33.1098 13.3046 33.2559 13.6788C33.3848 13.9979 33.5815 14.2876 33.8336 14.5295C34.0857 14.7714 34.3875 14.9602 34.7198 15.0837C35.1074 15.2295 35.518 15.3108 35.9341 15.3239C36.4693 15.3463 36.6388 15.3533 37.9959 15.3533C39.3531 15.3533 39.527 15.3533 40.0578 15.3239C40.473 15.3158 40.8838 15.2402 41.2727 15.1003C41.6049 14.9765 41.9066 14.7876 42.1585 14.5456C42.4105 14.3037 42.6071 14.0139 42.736 13.6948C42.8821 13.3212 42.9605 12.9273 42.9688 12.528C42.9927 12.0145 42.9999 11.8517 42.9999 10.5477C42.9999 9.24366 42.9999 9.07819 42.9688 8.56737C42.9624 8.16291 42.8832 7.76256 42.7348 7.38398V7.38398ZM42.0579 12.4719C42.0544 12.7796 41.9959 13.0843 41.8851 13.373C41.8016 13.5805 41.6739 13.769 41.51 13.9263C41.3461 14.0836 41.1498 14.2062 40.9337 14.2862C40.6365 14.3922 40.3225 14.4483 40.0055 14.4522C39.4776 14.4757 39.3286 14.4816 37.9748 14.4816C36.6199 14.4816 36.4815 14.4816 35.9435 14.4522C35.6267 14.4485 35.3129 14.3924 35.016 14.2862C34.7991 14.2067 34.602 14.0843 34.4374 13.927C34.2728 13.7697 34.1445 13.5809 34.0607 13.373C33.9514 13.0874 33.893 12.7862 33.8878 12.4821C33.8639 11.975 33.8584 11.8319 33.8584 10.5317C33.8584 9.23085 33.8584 9.09794 33.8878 8.58071C33.8914 8.27327 33.9499 7.96869 34.0607 7.68023C34.2302 7.25908 34.5775 6.9276 35.016 6.7664C35.3131 6.66079 35.6268 6.60465 35.9435 6.6004C36.4721 6.57745 36.6205 6.57104 37.9748 6.57104C39.3292 6.57104 39.4681 6.57104 40.0055 6.6004C40.3226 6.60406 40.6365 6.66022 40.9337 6.7664C41.1498 6.84662 41.3461 6.96935 41.51 7.12672C41.6738 7.28409 41.8016 7.47263 41.8851 7.68023C41.9943 7.96577 42.0528 8.26693 42.0579 8.5711C42.0818 9.07872 42.088 9.22124 42.088 10.5221C42.088 11.8223 42.088 11.9622 42.0641 12.4725H42.0579V12.4719Z" fill="#011226"/>
</svg>
